<?xml version="1.0" encoding="utf-8"?>
<!-- Generator: Adobe Illustrator 18.0.0, SVG Export Plug-In . SVG Version: 6.00 Build 0)  -->
<!DOCTYPE svg PUBLIC "-//W3C//DTD SVG 1.1//EN" "http://www.w3.org/Graphics/SVG/1.1/DTD/svg11.dtd">
<svg version="1.1" id="Layer_1" xmlns="http://www.w3.org/2000/svg" xmlns:xlink="http://www.w3.org/1999/xlink" x="0px" y="0px"
	 viewBox="0 0 315.5 58.7" enable-background="new 0 0 315.5 58.7" xml:space="preserve">
<g>
	<path fill="#F2F2F2" d="M11,17c-0.2,0.6-0.5,1.4-1,2.5c-0.5,1.1-1,2.4-1.5,3.7c-0.5,1.3-1,2.6-1.4,3.9c-0.4,1.3-0.7,2.4-0.9,3.3
		c-0.1,0.4-0.1,0.9-0.1,1.3c0,0.4,0.1,0.7,0.3,0.8c0.2,0,0.6-0.2,1-0.7c0.4-0.4,0.7-0.9,0.9-1.3c0.4-0.7,0.7-1.5,0.9-2.4
		c0.2-0.9,0.3-1.8,0.5-2.7c0.1-0.9,0.3-1.8,0.5-2.6c0.2-0.9,0.6-1.6,1-2.4c0.7-1,1.8-1.7,3.1-2.2c1.4-0.5,2.9-0.9,4.6-1.2
		c2.4-0.4,4.2-0.6,5.5-0.6c1.3,0.1,2.4,0.3,3.4,0.8c0,0.2,0.1,0.3,0.3,0.3c0.2,0.1,0.3,0.1,0.3,0.3c0,0.3-0.2,0.5-0.5,0.7
		c-0.3,0.1-0.7,0.4-1,0.8c-0.8,0.4-1.6,0.7-2.6,0.9c-1,0.2-2,0.3-3.1,0.3c-1,0-2.1,0.1-3.1,0.1c-1,0-2,0.2-2.9,0.4
		c-0.5,0.1-1,0.4-1.5,0.8c-0.5,0.4-0.9,0.9-1.1,1.6c-0.2,0.8-0.3,1.7-0.4,2.7C11.9,27,11.7,28,11.5,29c-0.2,1-0.4,1.9-0.8,2.9
		c-0.3,0.9-0.7,1.8-1.2,2.5c-0.4,0.6-0.9,1.1-1.4,1.6c-0.6,0.4-1.1,0.8-1.7,1.1c-0.4,0.2-0.8,0.4-1.1,0.5c-0.4,0.1-0.6,0.2-0.8,0.1
		c-0.3-0.1-0.6-0.4-0.8-1s-0.4-1.2-0.5-1.9c-0.1-0.8-0.1-1.5,0-2.2c0.1-0.7,0.2-1.5,0.5-2.2C4.3,28.1,5,26,5.8,24
		c0.8-2,1.7-4.3,2.7-6.8c-0.9,0-1.9,0.1-3.1,0.3c-1.1,0.1-2.7,0.3-4.5,0.6c-0.2,0-0.3-0.3-0.5-0.8c-0.1-0.2-0.2-0.4-0.2-0.6
		C0,16.5,0,16.3,0,16.1c0-0.2,0.1-0.3,0.2-0.4c0.1-0.1,0.3-0.2,0.5-0.3c0.2-0.1,0.4-0.3,0.6-0.5c0.2-0.2,0.4-0.3,0.6-0.4
		c1-0.2,2.1-0.4,3.3-0.6c1.3-0.1,2.3-0.2,3.3-0.1c0.4,0,0.6,0.1,0.8,0.2c-0.3-1-0.6-2.1-0.7-3.2C8.5,9.6,8.4,8.6,8.3,7.5
		c-0.1-1.1-0.1-2.1-0.1-3c0-0.9,0.1-1.8,0.2-2.5c0-0.3,0.3-0.7,1-1.1c0.2-0.2,0.4-0.3,0.7-0.5c0.3-0.2,0.5-0.3,0.7-0.3
		c0.1,0,0.2,0,0.3-0.1c0.1,0,0.2,0,0.3,0.1c0.1,0.1,0.1,0.2,0.1,0.4c0,0.2,0,0.4,0,0.5c0,2.5-0.1,4.9-0.2,7.2
		c-0.1,2.3-0.4,4.4-0.9,6.4c0,0.1,0.1,0.1,0.1,0.2c0,0,0.1,0.1,0.1,0.1c0.1,0.1,0.2,0.2,0.3,0.3c0.1,0.1,0.2,0.2,0.2,0.4
		C11.3,16.1,11.2,16.5,11,17z M40.1,13.2c0,1.7-0.1,3.4-0.4,5.1c-0.2,1.7-0.5,3.4-0.9,5.1c-0.4,1.7-0.7,3.4-1.1,5.1
		c-0.4,1.7-0.7,3.4-1,5.1c0,0.2-0.1,0.4-0.3,0.6c-0.2,0.2-0.3,0.4-0.3,0.6c0,0.2-0.1,0.3-0.3,0.4c-0.1,0.1-0.3,0.2-0.4,0.3
		c-0.1,0.1-0.2,0-0.2-0.2c0-0.2,0-0.4-0.1-0.5c0.1-1.8,0.2-3.9,0.5-6.4c0.2-2.5,0.6-5,1-7.5c-1.2,1.3-2.4,2.5-3.7,3.8
		c-1.3,1.2-2.6,2.4-4,3.3c-1.4,1-2.8,1.8-4.2,2.4s-2.9,0.9-4.4,0.9c-1.4,0-2.6-0.5-3.7-1.6c-0.3,0-0.5-0.2-0.5-0.5
		c-0.1-0.3-0.2-0.6-0.2-0.8c-0.1-0.2-0.1-0.4-0.2-0.7c0-0.3-0.1-0.5-0.1-0.6c2,0.1,4.1-0.1,6-0.6s3.9-1.2,5.7-2
		c1.8-0.9,3.6-1.9,5.3-3.1c1.7-1.2,3.2-2.5,4.7-3.8c0.2-1,0.5-2.1,0.9-3.2c0-0.4,0.1-0.8,0.2-1c0.1-0.2,0.2-0.5,0.4-0.8
		c0.1-0.1,0.1-0.3,0.2-0.6c0.1-0.3,0.1-0.5,0.2-0.5c0.2,0.2,0.4,0.3,0.6,0.4c0.2,0.1,0.3,0.2,0.4,0.5c0,0.2,0.1,0.4,0.1,0.6
		C40.1,12.8,40.1,13,40.1,13.2z M28.3,40.6c0.7,0,1.6-0.2,2.7-0.4c1.1-0.2,2.4-0.5,3.8-0.8c1.4-0.3,2.9-0.6,4.5-1
		c1.6-0.4,3.2-0.8,4.9-1.2c-0.1,0.2-0.2,0.3-0.4,0.5c-0.2,0.2-0.3,0.4-0.4,0.6c-0.2,0.4-0.5,0.8-0.8,1.1c-0.3,0.3-0.6,0.6-1.1,0.8
		c-0.9,0.4-1.8,1-2.9,1.6c-1,0.6-2.1,1.2-3.1,1.6c-1.2,0.4-2.4,0.8-3.5,1.1c-1.1,0.3-2.2,0.5-3.1,0.7c-0.2,0-0.4,0-0.8,0.1
		c-0.3,0-0.6,0-0.8-0.2c-0.2-0.1-0.4-0.2-0.6-0.4c-0.2-0.1-0.4-0.3-0.6-0.5c-0.2-0.2-0.4-0.5-0.4-0.8c0-0.3,0-0.6,0-0.7
		c0-0.2,0-0.3-0.1-0.5c-0.1-0.2-0.1-0.3-0.1-0.5c0.1-1.3,0.4-2.5,0.9-3.8c0.5-1.3,1.2-2.2,2.2-3c0,0,0.1-0.1,0.3-0.2
		c0.1-0.1,0.3-0.2,0.5-0.4c0.2-0.1,0.4-0.3,0.5-0.4c0.2-0.1,0.3-0.2,0.4-0.2c0.2,0,0.5-0.1,0.9-0.1c0.3,0,0.4,0.2,0.1,0.6
		c-0.7,1.1-1.4,2.2-2,3.3C28.9,38.7,28.5,39.7,28.3,40.6z"/>
	<path fill="#F2F2F2" d="M57.1,17.3c0.6,0.2,0.8,0.6,0.5,1.1c-0.1,0.2-0.3,0.5-0.7,0.7c-0.3,0.2-0.6,0.4-0.9,0.4H45.7
		c-0.6-0.1-1-0.2-1.2-0.4c-0.2-0.2-0.4-0.3-0.4-0.5c-0.1-0.2-0.1-0.5-0.1-0.8c0-0.3,0.1-0.5,0.4-0.6c0.6-0.2,1-0.4,1.4-0.5
		c0.4-0.2,1-0.3,1.8-0.3c0.4,0,0.9-0.1,1.5-0.1c0.6,0,1.2,0,1.8,0c0.6,0,1.2,0.1,1.8,0.1c0.6,0.1,1.1,0.1,1.6,0.2
		c0.5,0.1,1,0.2,1.5,0.3C56.2,17.1,56.7,17.2,57.1,17.3z M68.1,14.1c0.1-1.1,0.5-2,1.3-2.7c0.2-0.2,0.4-0.3,0.6-0.4
		c0.2-0.1,0.3,0,0.4,0.4c0.1,0.6,0.2,1.3,0.1,2c-0.1,1.5-0.2,3.3-0.4,5.3c-0.1,2-0.2,4-0.4,6.1c2.1-1.6,4-2.9,5.9-3.9
		c1.8-1,3.5-2.1,4.9-3.2l0.1-0.4c0.2-0.3,0.4-0.6,0.6-0.9c0.3-0.3,0.5-0.5,0.8-0.7c0.3-0.2,0.6-0.3,0.9-0.4c0.3-0.1,0.5,0,0.7,0.1
		c0.3,0.3,0.5,0.6,0.6,0.8c0.1,0.3,0.1,0.6,0.1,0.8c0,0.3-0.1,0.6-0.2,0.9c-0.1,0.3-0.2,0.6-0.2,0.9c-0.2,0.9-0.4,1.9-0.6,3
		c-0.2,1.1-0.4,2.2-0.7,3.3c-0.2,1.1-0.4,2.1-0.6,3.1c-0.2,1-0.3,1.8-0.4,2.5c0,0.2,0,0.5,0.1,0.8c0.1,0.3,0.2,0.6,0.1,0.7
		c-0.1,0.1-0.3,0.4-0.5,0.9c0,0.1-0.1,0.3,0,0.6c0,0.3,0,0.5,0,0.6L81,34.8c-0.4-0.4-0.7-1-1-1.9c-0.3-0.8-0.5-1.6-0.5-2.2
		c0-1.5,0-3,0.1-4.6c0.1-1.5,0.2-3,0.4-4.6c-1.6,1.5-3.3,2.9-5,4.2c-1.7,1.3-3.5,2.8-5.4,4.7v1.1c0.1,0.6,0.1,1.2,0,1.8
		s-0.1,1.1-0.2,1.3c-0.7-0.4-1.2-1-1.5-1.7c-0.3-0.7-0.5-1.5-0.6-2.3c-0.1-1.4-0.1-2.8-0.1-4.4c0-1.6,0.1-3.2,0.2-4.9
		c-0.2,0.4-0.4,0.9-0.6,1.2c-0.2,0.4-0.3,0.8-0.4,1.2c-2.6,3.5-5,6.5-7.3,8.9c-2.3,2.4-4.4,4.3-6.1,5.7c-0.3,0-0.5-0.1-0.7-0.2
		c-0.2-0.1-0.4-0.2-0.6-0.3c-0.3-0.1-0.6-0.1-0.9-0.1c-0.3,0-0.5-0.1-0.7-0.3c-0.2-0.2-0.4-0.3-0.6-0.5c-0.2-0.2-0.4-0.4-0.6-0.6
		c-0.2-1.2-0.3-2.5-0.2-4c0.1-1.4,0.3-2.9,0.6-4.4c0.3-1.5,0.7-2.9,1.2-4.3c0.5-1.4,1-2.7,1.6-3.9c0.3,0.2,0.4,0.5,0.5,1.1
		c0.1,0.6,0.1,1.2,0.2,1.9c0,0.6,0,0.9-0.1,0.9c-0.1,0-0.2,0.1-0.2,0.3c-0.4,1.8-0.8,3.5-1,5c-0.2,1.5-0.4,2.8-0.4,3.7
		c0.4,0,0.9-0.2,1.7-0.7c0.8-0.5,1.7-1.1,2.6-1.9c1-0.8,2-1.6,3.2-2.6c1.1-1,2.3-2,3.4-3c1.1-1,2.1-2,3.1-3c1-1,1.9-1.8,2.6-2.6
		c0.1-0.9,0.2-1.7,0.2-2.6C68,15.6,68,14.8,68.1,14.1z"/>
	<path fill="#F2F2F2" d="M98.1,4.5c-0.7,1-1.4,2.1-2.2,3.3c-0.8,1.2-1.5,2.2-2,3c0.4-0.1,0.8-0.3,1.4-0.4c0.6-0.2,1.2-0.3,1.7-0.4
		c0.3,0,0.5,0,0.8,0l0.7,0.1c0.2,0,0.4,0.1,0.6,0.1c0.2,0,0.4,0,0.5,0.1c0.2,0.1,0.3,0.2,0.5,0.4c0.2,0.2,0.3,0.3,0.2,0.5
		c0,0.2-0.1,0.5-0.3,0.9c-0.2,0.4-0.4,0.7-0.6,1c-0.9,1.2-1.8,2.5-2.7,3.9c-0.9,1.4-1.8,2.7-2.6,4.1c0.7-0.3,1.4-0.6,2.2-0.9
		c0.8-0.3,1.6-0.7,2.4-1c0.8-0.3,1.5-0.6,2.3-0.9c0.7-0.3,1.4-0.5,2-0.7c0.4-0.1,0.8-0.1,1.1-0.2c0.3,0,0.7-0.1,1.1-0.1
		c-0.1,0.3-0.3,0.5-0.4,0.5c-0.2,0.1-0.3,0.2-0.5,0.5c-0.3,0.4-0.7,0.9-1.1,1.5c-0.4,0.6-0.8,1-1.3,1.2c-0.7,0.4-1.5,0.8-2.4,1.2
		c-0.9,0.4-1.8,0.8-2.7,1.2c-0.9,0.4-1.8,0.8-2.7,1.1c-0.9,0.3-1.7,0.6-2.5,0.9c-0.1-0.1-0.1-0.3-0.1-0.5c0-0.2,0.1-0.5,0.1-0.8
		c0-0.2,0-0.4-0.1-0.6c0-0.2,0-0.4,0.1-0.6l0.5-1.3c0.3-0.7,0.7-1.5,1.1-2.3c0.4-0.8,0.9-1.6,1.3-2.3c0.4-0.7,0.8-1.4,1.2-2
		c0.4-0.6,0.7-1.1,0.9-1.4c-0.6,0.2-1.5,0.6-2.6,1.1c-1.1,0.6-2.2,1.1-3.3,1.7c-0.4,0-0.5-0.3-0.4-1c0.1-0.3,0.2-0.6,0.3-0.8
		c0.1-0.2,0.3-0.6,0.4-1c0.1-0.3,0.2-0.6,0.2-0.9c0-0.3,0.1-0.6,0.3-1c0.6-1.2,1.4-2.5,2.3-3.9c1-1.3,1.8-2.5,2.5-3.5
		c0.1-0.2-0.1-0.4-0.6-0.5c-0.5-0.1-1.2-0.1-2.1-0.1c-0.8,0-1.7,0.1-2.7,0.2c-0.9,0.1-1.8,0.2-2.4,0.3l-0.2-1c0-0.2,0-0.4,0-0.6
		c0-0.2,0-0.3,0-0.5c0-0.2-0.1-0.3-0.2-0.4c-0.1-0.1-0.1-0.2-0.1-0.5c0.3-0.4,0.8-0.7,1.4-1c0.6-0.2,1.3-0.4,2-0.5
		c0.7-0.1,1.4,0,2.1,0c0.7,0.1,1.3,0.2,1.9,0.5c0.2,0.1,0.3,0.2,0.6,0.2c0.2,0.1,0.4,0.2,0.6,0.2c0.2,0.2,0.6,0.4,1,0.7
		c0.4,0.3,0.7,0.6,0.8,0.8c0.2,0.3,0.2,0.6,0,1C98.5,3.7,98.3,4.1,98.1,4.5z M109,25.2c0,0.2-0.1,0.4-0.4,0.5
		c-0.2,0.1-0.4,0.3-0.6,0.5c-0.3,0.4-0.7,0.8-1,1.1c-0.3,0.3-0.8,0.6-1.4,0.9c-0.4,0.2-0.9,0.4-1.4,0.7c-0.6,0.2-0.9,0.4-1.1,0.5
		c-2.2,0.6-4.3,1.1-6.4,1.6c-2.1,0.5-4.2,0.7-6.4,0.7c-0.3-0.2-0.6-0.3-0.9-0.5c-0.3-0.1-0.5-0.3-0.6-0.5c0-0.1-0.1-0.1-0.2-0.1
		c-0.1,0-0.1-0.1,0.1-0.2c0.1-0.1,0.4-0.2,0.8-0.4c0.4-0.2,0.7-0.3,0.9-0.4c1.3-0.5,2.7-1,4.3-1.5c1.5-0.5,3.1-0.9,4.7-1.3
		c1.6-0.4,3.2-0.7,4.9-1C105.9,25.3,107.5,25.2,109,25.2z M105.4,36.4c0,0.9-0.4,1.9-1.2,2.9c-0.8,1.1-1.9,2.3-3.4,3.7
		c0.1-0.1,0.3-0.2,0.5-0.2c0.2-0.1,0.4-0.2,0.7-0.3c0.6-0.2,1.3-0.4,2-0.5c0.3-0.1,0.7-0.1,1.2-0.1c0.5,0,0.9,0.1,1.2,0.2
		c0.6,0.2,1,0.4,1.1,0.7c0.1,0.2,0.1,0.3,0,0.5c-0.1,0.2-0.1,0.4-0.1,0.7c-1,1.6-2.4,3.4-4,5.3c-1.6,2-3.2,3.8-4.7,5.5
		c2.1-0.7,3.9-1.4,5.4-2c1.5-0.6,2.9-1.2,4.2-1.6c1.3-0.5,2.4-1,3.5-1.4c1.1-0.5,2.2-0.9,3.4-1.4c0.1,0,0,0.1-0.4,0.4
		c-0.4,0.3-0.6,0.5-0.8,0.8l-3,3c-0.9,0.6-2.1,1.3-3.4,2c-1.3,0.7-2.8,1.3-4.2,1.9c-1.5,0.6-2.9,1.1-4.4,1.5
		c-1.4,0.4-2.7,0.7-3.7,0.8c-0.4,0.1-0.8,0.1-0.9,0.1c-0.2,0-0.3-0.2-0.4-0.4c0-0.2-0.1-0.4,0-0.7c0-0.3,0.1-0.6,0.2-0.8
		c0.1-0.2,0.1-0.4,0.2-0.7c0.1-0.2,0.2-0.5,0.4-0.7c0.4-0.4,0.9-1.1,1.6-1.8c0.7-0.8,1.5-1.6,2.4-2.6c0.9-0.9,1.7-1.9,2.5-2.9
		c0.8-1,1.6-1.9,2.2-2.8c-1.5,0.5-3,1.1-4.6,1.7s-3.4,1.2-5.2,1.8c-0.4,0.1-0.6-0.1-0.6-0.5c0-0.4,0-0.7,0.1-0.9
		c0.1-0.2,0.2-0.4,0.3-0.7c0.1-0.3,0.2-0.5,0.4-0.6c0.2-0.2,0.4-0.3,0.6-0.4c0.2-0.1,0.3-0.2,0.5-0.4c0.4-0.3,1-0.8,1.6-1.4
		c0.7-0.6,1.3-1.3,1.9-2c0.6-0.7,1.2-1.4,1.7-2c0.5-0.6,0.8-1.1,0.9-1.4c0.1-0.2,0.1-0.4-0.1-0.5c-0.2-0.1-0.6-0.1-1.2,0
		c-0.6,0.1-1.3,0.3-2.1,0.6c-0.8,0.3-1.7,0.7-2.7,1c-1,0.4-2,0.8-3.1,1.2c-0.4-0.1-0.7-0.3-0.9-0.6c-0.2-0.3-0.4-0.5-0.5-0.6
		c-0.1-0.1-0.2-0.4-0.2-0.7v-1c0-0.3-0.1-0.5-0.1-0.7c0-0.1,0.1-0.3,0.3-0.5c0.6-0.4,1.3-0.7,2.1-1c0.8-0.3,1.5-0.7,2.3-1
		c0.8-0.3,1.6-0.6,2.5-0.8c0.8-0.2,1.7-0.3,2.5-0.4c0.3,0,0.7-0.1,1.2-0.2c0.5-0.1,0.8-0.1,1.2,0c0.4,0.1,0.8,0.3,1,0.6
		c0.2,0.3,0.5,0.6,0.8,0.8l1,0.7C105.3,35.5,105.4,35.9,105.4,36.4z"/>
	<path fill="#F2F2F2" d="M154.3,32.1c0.3,0,0.4,0,0.4,0.1s-0.1,0.3-0.2,0.5c-0.1,0.2-0.3,0.4-0.3,0.4c-0.6,0.4-1.2,0.7-1.6,1
		c-0.5,0.3-1.2,0.6-2.1,1c-0.3,0.1-0.6,0.4-1,0.7c-0.4,0.3-0.7,0.5-0.9,0.6c-1,0.2-2.1,0.5-3.5,0.8c-1.4,0.3-2.9,0.6-4.5,0.9
		c-1.6,0.3-3.3,0.4-5,0.6c-1.7,0.1-3.4,0.1-4.9-0.1c-0.2,0-0.3-0.1-0.4-0.2c0-0.1-0.2-0.1-0.4-0.2c-0.1-0.2-0.2-0.2-0.4-0.2
		c-0.2,0-0.4,0-0.4-0.2c-0.1-0.4-0.1-0.8,0.1-1c0.1-0.2,0.2-0.3,0.5-0.3c0.2,0,0.4-0.1,0.6-0.1c0.2-0.1,0.4-0.2,0.6-0.3
		c0.2-0.1,0.4-0.1,0.6-0.1c1.5-0.3,3.1-0.6,5-0.9c1.9-0.3,3.8-0.7,5.9-1c2-0.4,4.1-0.7,6.2-1C150.4,32.6,152.4,32.4,154.3,32.1z
		 M142.8,12c0.4,0.4,0.6,0.9,0.8,1.5c0.1,0.3,0.2,0.5,0.3,0.8c0.1,0.2,0.2,0.5,0.2,0.8c0,0.3-0.1,0.7-0.2,1c-0.1,0.3-0.2,0.7-0.2,1
		c-0.1,1-0.3,2.1-0.6,3.2c-0.3,1.1-0.6,2.1-1,3.1c-0.3,1-0.7,2-1,2.9c-0.4,0.9-0.7,1.6-0.9,2.2c-0.1,0.2-0.3,0.4-0.4,0.7
		c-0.2,0.2-0.3,0.5-0.4,0.7c-0.1,0.2-0.2,0.2-0.3,0.2c-0.1,0-0.3,0.1-0.3,0.2c-0.1,0.2-0.3,0.5-0.4,0.8c-0.2,0.3-0.3,0.6-0.4,0.8
		c-0.4,0.4-0.7,0.7-0.9,0.9c-0.3,0.2-0.6,0.3-0.9,0.4c0.2-1.2,0.5-2.5,0.9-4c0.3-1.5,0.7-3,1.1-4.5c0.4-1.6,0.8-3.1,1.3-4.7
		c0.4-1.6,0.9-3.1,1.3-4.5c-0.2-0.4-0.7-0.8-1.6-1.3c-0.9-0.4-1.9-0.8-3-1.2c-1.1-0.4-2.2-0.7-3.3-1c-1.1-0.3-1.9-0.5-2.4-0.6
		c-0.1,0-0.2-0.1-0.3-0.1c-0.1,0-0.2-0.1-0.1-0.3c0-0.1,0.2-0.3,0.4-0.6c0.2-0.3,0.4-0.5,0.5-0.6c0.1-0.1,0.1-0.2,0.2-0.3
		c0.1-0.1,0.1-0.2,0.3-0.3c2.3-0.3,4.4-0.3,6.3,0C139.6,9.4,141.3,10.4,142.8,12z"/>
	<path fill="#F2F2F2" d="M168.1,11.2c0.2,1,0.1,1.9-0.3,2.9c-0.4,1-1,2-1.6,2.9c-0.7,0.9-1.4,1.8-2.2,2.6c-0.8,0.8-1.4,1.4-2,1.9
		c1.2-0.3,2.2-0.5,3.3-0.6c1-0.1,1.9-0.1,2.6-0.1c0.2,0,0.4,0.1,0.8,0.1c0.3,0,0.5,0.1,0.7,0.1c0.2,0.1,0.3,0.2,0.3,0.3
		c0,0.1,0.1,0.2,0.1,0.4c0.1,0.4,0.2,0.7,0.3,0.9c0.1,0.2,0.1,0.5,0,0.8c-0.1,0.2-0.2,0.4-0.4,0.6c-0.2,0.2-0.3,0.4-0.4,0.6
		c-1.2,1.8-2.5,3.6-3.9,5.5c-1.4,1.8-2.5,3.8-3.5,5.8c1.9-0.8,3.9-1.8,5.8-3c2-1.2,3.8-2.5,5.5-3.8c1.7-1.3,3.2-2.6,4.5-3.7
		c1.3-1.2,2.3-2,3-2.6c0,0.2-0.1,0.5-0.5,1c-0.3,0.5-0.5,0.8-0.6,1c-0.3,0.7-0.6,1.3-1,1.6c-0.3,0.3-0.6,0.9-1,1.6
		c-0.5,0.6-1,1.3-1.7,2.1c-0.6,0.8-1.2,1.5-1.8,2.2c-0.8,0.9-1.6,1.7-2.5,2.6c-0.9,0.8-1.8,1.6-2.8,2.3c-1,0.7-2,1.4-3,1.9
		c-1,0.6-2.1,1-3.2,1.3c-0.2,0.1-0.5,0.1-0.7,0c-0.2-0.1-0.5-0.2-0.7-0.2c-0.2-0.1-0.5-0.1-0.8-0.2c-0.3,0-0.5-0.2-0.7-0.4
		c-0.1-0.2-0.2-0.4-0.2-0.6c0-0.2,0-0.5,0-0.8c0-0.8,0.3-1.8,0.7-3c0.4-1.2,0.9-2.4,1.4-3.6c0.5-1.2,1.1-2.4,1.6-3.5
		c0.6-1.1,1-2,1.3-2.7c-0.3,0-0.7,0.1-1.1,0.2c-0.4,0.1-0.9,0.2-1.4,0.3c-0.5,0.1-1,0.2-1.5,0.3c-0.5,0.1-1,0.2-1.4,0.3
		c-0.2,0.1-0.4,0.1-0.5,0c-0.2-0.1-0.3-0.2-0.5-0.3c-0.2-0.1-0.4-0.2-0.6-0.3c-0.3-0.1-0.4-0.3-0.5-0.5c0-0.1,0-0.2,0.1-0.3
		c0.1-0.1,0.1-0.2,0.1-0.4c0-0.2,0.1-0.4,0.2-0.6c0.2-0.3,0.3-0.5,0.6-0.8c0.2-0.3,0.4-0.5,0.6-0.7c0.2-0.2,0.4-0.4,0.5-0.5
		c0.5-0.6,1-1.4,1.5-2.2c0.5-0.8,1-1.6,1.5-2.4c0.4-0.8,0.8-1.6,1.1-2.3c0.3-0.7,0.5-1.4,0.6-2c0-0.2-0.2-0.3-0.5-0.3
		c-0.4,0-0.8,0-1.3,0.1c-0.5,0.1-1.1,0.2-1.6,0.3c-0.6,0.1-1.1,0.3-1.5,0.4c-0.3,0-0.7-0.2-1.2-0.5c-0.5-0.3-0.8-0.6-1-0.8
		c-0.2-0.2-0.3-0.4-0.3-0.5c0-0.1,0-0.2-0.1-0.3c-0.2-0.3-0.1-0.6,0.4-0.9c0.2-0.2,0.6-0.3,1.1-0.6c0.5-0.2,1.1-0.4,1.7-0.6
		c0.6-0.2,1.2-0.4,1.9-0.5c0.6-0.2,1.2-0.3,1.6-0.3c0.2,0,0.6,0,1,0c0.4,0.1,0.8,0.2,1.3,0.4c0.2,0.1,0.5,0.3,0.8,0.5
		c0.3,0.3,0.6,0.5,0.8,0.6c0.3,0.2,0.5,0.3,0.6,0.4C167.9,10.7,168,10.9,168.1,11.2z M186,12.9c0.2,1.4,0.3,3,0.3,4.7
		c0.1,1.7,0.1,3.5,0.1,5.4c0,1.8-0.1,3.7-0.1,5.4c-0.1,1.8-0.1,3.4-0.2,4.9c-0.1,1.5-0.1,2.7-0.2,3.7c-0.1,1-0.1,1.7-0.1,2
		c-0.8-1.1-1.5-2.7-1.8-4.7c-0.4-2-0.6-4.2-0.7-6.6s0-4.9,0.1-7.4c0.2-2.5,0.4-4.9,0.6-7.1c0-0.2,0-0.3,0.2-0.4
		c0.2-0.1,0.4-0.2,0.6-0.4c0.1-0.1,0.2-0.2,0.4-0.4c0.1-0.2,0.2-0.2,0.3-0.2c0.2,0,0.4,0.1,0.4,0.4C185.9,12.5,186,12.7,186,12.9z"
		/>
	<path fill="#F2F2F2" d="M217.1,27.4c0.1,0,0.1,0.1,0.1,0.3c0,0.1-0.1,0.3-0.2,0.4c-0.1,0.2-0.2,0.3-0.2,0.5
		c-0.1,0.2-0.1,0.3-0.1,0.4c0,0.2-0.1,0.4-0.2,0.5c-0.1,0.1-0.2,0.2-0.3,0.4c-0.1,0.1-0.2,0.3-0.2,0.4c-0.1,0.2-0.2,0.3-0.4,0.3
		c-2,0.6-4.2,1-6.5,1.4c-2.3,0.4-4.7,0.6-7.1,0.7c-0.2,1.2-0.4,2.3-0.6,3.3c-0.2,0.9-0.3,2.1-0.4,3.3c0,0.5,0.6,0.8,1.8,0.8
		c0.7,0,1.5-0.1,2.5-0.2c0.9-0.1,1.8-0.2,2.7-0.4c2-0.4,4-0.8,6-1.3c1.9-0.5,3.8-1.1,5.5-1.9c0.1,0,0.3-0.1,0.6-0.1
		c0.3,0,0.5,0,0.6,0c0,0-0.1,0.1-0.3,0.3c-0.2,0.1-0.4,0.4-0.7,0.6c-0.2,0.2-0.5,0.4-0.8,0.6c-0.3,0.2-0.6,0.4-0.8,0.6
		c-0.2,0.2-0.4,0.4-0.6,0.6c-0.2,0.2-0.4,0.4-0.6,0.6c-1,0.7-2,1.3-3.2,2c-1.2,0.6-2.4,1.2-3.7,1.6c-1.3,0.5-2.5,0.8-3.8,1.1
		c-1.3,0.3-2.5,0.4-3.6,0.4c-0.4,0-0.8-0.1-0.9-0.4c-0.2-0.3-0.4-0.6-0.6-1c-0.1-0.2-0.3-0.4-0.5-0.5c-0.2-0.1-0.4-0.3-0.5-0.5
		c-0.2-0.5-0.4-1-0.5-1.4c-0.3-1.3-0.4-2.6-0.1-3.9c0.2-1.3,0.5-2.7,0.9-4.2c-1.4,0-2.8-0.1-4.2-0.2c-1.3-0.1-2.6-0.3-3.8-0.6
		c-0.2,0-0.3-0.2-0.5-0.4c-0.2-0.2-0.3-0.3-0.5-0.3c-0.3-0.2-0.5-0.4-0.5-0.8c-0.1-0.3-0.1-0.6-0.1-0.8c0-0.2,0.2-0.3,0.4-0.4
		c0.2-0.1,0.5-0.1,0.8-0.1c1.7,0,3.5,0,5.4-0.1c1.9-0.1,3.8-0.2,5.8-0.4c2-0.2,3.9-0.4,5.9-0.6c2-0.2,4-0.4,5.9-0.7
		c0.4-0.1,0.9-0.1,1.3-0.1C216.2,27.1,216.7,27.2,217.1,27.4z M194.7,17.8c0.9,0.1,2,0.2,3.3,0.2c1.3,0,2.6,0,4-0.1
		c1.3-0.1,2.6-0.2,3.9-0.3c1.3-0.1,2.4-0.3,3.3-0.5c0.2,0,0.4,0,0.7,0.1c0.3,0.1,0.5,0.1,0.8,0.2c0.2,0,0.4,0,0.6,0
		c0.2,0,0.4,0,0.5,0.1c0,0,0,0.1-0.1,0.2c-0.1,0.1-0.3,0.3-0.6,0.4c-0.2,0.1-0.5,0.3-0.8,0.4c-0.3,0.2-0.5,0.3-0.6,0.4
		c-0.4,0.2-1.2,0.6-2.3,1c-1.1,0.4-2.3,0.8-3.6,1.3c-1.3,0.4-2.6,0.8-3.9,1.1c-1.3,0.3-2.3,0.5-3.1,0.5c-0.3,0-0.6,0-0.8-0.1
		c-0.3-0.1-0.5-0.2-0.8-0.2c-0.3-0.1-0.6-0.2-0.9-0.2c-0.3-0.1-0.5-0.2-0.7-0.4c-0.2-0.2-0.3-0.5-0.2-0.9c0.1-0.3,0-0.7-0.1-1
		c-0.1-0.3-0.3-0.6-0.4-1c-0.2-0.3-0.3-0.7-0.3-1c-0.1-0.8-0.1-1.7-0.1-2.7c0.1-0.9,0.2-1.9,0.3-2.8c0.1-0.9,0.3-1.7,0.5-2.5
		c0.2-0.8,0.4-1.4,0.6-1.9c0.2-0.2,0.3-0.4,0.5-0.6c0.1-0.2,0.2-0.3,0.3-0.3c0.2-0.2,0.3-0.3,0.4-0.4c0.1-0.1,0.2-0.1,0.2-0.2
		c0.1,0,0.1,0,0.1,0.1c0,0.1,0,0.2,0,0.3c0.1,0.1,0.1,0.2,0.1,0.3c-0.1,0.6-0.2,1.3-0.3,2.2c-0.1,0.9-0.2,1.9-0.3,2.9
		c-0.1,1-0.1,2-0.2,3C194.6,16.4,194.6,17.2,194.7,17.8z"/>
	<path fill="#F2F2F2" d="M249.8,43.4c1.2-0.6,2.5-1.1,3.8-1.8c1.3-0.6,2.6-1.2,3.9-1.9c0.2-0.1,0.5-0.2,0.8-0.4
		c0.3-0.1,0.6-0.3,1-0.6c0.1,0.1,0.1,0.2-0.1,0.5c-0.1,0.2-0.2,0.4-0.2,0.6c-0.1,0.3-0.1,0.6-0.2,0.8c0,0.2-0.1,0.3-0.1,0.4
		c-0.2,0.1-0.3,0.3-0.3,0.5c-0.1,0.2-0.2,0.4-0.4,0.5c-1.6,1.2-3.4,2.4-5.3,3.6c-1.9,1.2-4.2,2.3-6.9,3.4c-0.1,0-0.2-0.2-0.2-0.4
		c0-0.2,0-0.4,0-0.6c0-0.2,0-0.4,0.1-0.6c0-0.2,0.1-0.3,0.1-0.4c-0.1-0.2,0-0.4,0.2-0.7c0.2-0.3,0.3-0.5,0.4-0.7
		c0.1-0.2,0.2-0.4,0.5-0.6l0.6-0.4c0.6-0.4,0.9-1,1.1-1.8c0.2-0.9,0.3-1.8,0.2-2.9c-0.1-1.1-0.2-2.2-0.4-3.3
		c-0.2-1.2-0.5-2.2-0.7-3.2c-1,1.2-2.2,2.2-3.7,2.9c-0.6,0.3-1,0.5-1.3,0.7c-0.3,0.2-0.6,0.3-1.1,0.3c-0.4-0.2-0.6-0.4-0.7-0.6
		c0-0.2-0.1-0.5-0.1-1c0-0.2-0.1-0.4-0.1-0.7c-0.1-0.3-0.1-0.5-0.1-0.7c0.4-2.2,1.2-4.4,2.3-6.8c1.1-2.4,2.4-4.9,3.8-7.7
		c-0.7,0-1.5,0.1-2.4,0.1c-0.9,0.1-1.8,0.2-2.7,0.4c-0.9,0.2-1.8,0.3-2.6,0.5c-0.8,0.2-1.6,0.4-2.2,0.5c-0.1,0-0.2-0.1-0.3-0.2
		c-0.1-0.1-0.2-0.3-0.2-0.4c-0.2-0.2-0.3-0.4-0.4-0.6c-0.1-0.2-0.2-0.5-0.2-0.7c0-0.2,0-0.3,0.1-0.5c0.1-0.1,0.1-0.2,0.3-0.4
		c0.1-0.1,0.1-0.2,0.2-0.3c0.1-0.1,0.1-0.2,0.2-0.3c0.6-0.6,1.5-1,2.5-1.3s2.1-0.5,3.1-0.6c1.1-0.1,2-0.1,3-0.1
		c0.9,0,1.6,0.1,2.1,0.2c0.3,0.1,0.6,0.2,0.8,0.4c0.2,0.2,0.3,0.5,0.3,1c0,0.5,0.1,0.8,0.1,1.1c0.1,0.3,0.2,0.5,0.3,0.6
		c0.1,0.1,0.1,0.4-0.1,0.9c-1.1,2-2.1,4.1-3.1,6.3c-1,2.2-1.7,4-2.2,5.6c1.4-0.8,2.7-1.9,3.7-3.2c1-1.3,1.6-2.8,1.6-4.6
		c0-0.1,0.1-0.2,0.3-0.2c0.2-0.1,0.3-0.2,0.5-0.3c0.1-0.1,0.3-0.2,0.4-0.5c0.2-0.2,0.3-0.3,0.4-0.4c0.2-0.1,0.3,0,0.4,0.4
		c0.4,1,0.5,2,0.3,3.2c-0.4,1.8-0.9,3.3-1.7,4.7c0.3,1.7,0.5,3.2,0.7,4.5c0.1,1.3,0.2,2.5,0.2,3.5c0,1,0,1.9-0.1,2.6
		C250.1,42.3,250,42.9,249.8,43.4z M238.6,3.9c-0.1-0.4-0.1-0.6,0.1-0.8c0-0.1,0.2-0.1,0.4-0.2c0.3,0,0.4-0.1,0.5-0.1
		c0.2-0.1,0.5-0.2,0.8-0.2c0.3,0,0.6,0,0.9,0.1c1,0.4,2,1,2.9,2c0.9,1,1.9,2.4,2.9,4.2c0.2,0.4,0.4,0.9,0.5,1.5
		c0.1,0.7,0.3,1.3,0.4,1.9c0.2,0.6,0.3,1.1,0.4,1.6c0.1,0.5,0.2,0.8,0.1,1.1c-1.6-1.9-3.2-3.8-4.8-5.6
		C242.1,7.6,240.4,5.8,238.6,3.9z M265.5,34.4c0,0.4,0,0.7-0.1,1.1c0,0.4-0.1,0.7-0.1,1c0,0.5-0.1,1-0.1,1.4c0,0.5-0.1,0.9-0.2,1.4
		c-0.2-0.4-0.4-0.9-0.7-1.5c-0.3-0.5-0.5-1.1-0.6-1.7c-0.2-1-0.4-2.1-0.7-3.1c-0.2-1-0.5-2.1-0.7-3.2c-0.4-2.6-0.6-5.1-0.7-7.8
		c-0.1-2.6-0.1-5.1-0.1-7.4c0-0.3,0-0.5,0.2-0.6c0.1-0.1,0.2-0.2,0.3-0.3c0.1-0.1,0.2-0.2,0.3-0.4c0.1-0.2,0.2-0.3,0.3-0.4
		c0.1-0.1,0.2-0.2,0.2-0.4c0.1-0.2,0.2-0.3,0.3-0.3c0.1,0,0.2,0,0.3,0.1c0.1,0,0.2,0.1,0.5,0.3c0.2,0.2,0.4,0.4,0.4,0.5
		c0,0.1,0.1,0.4,0.2,0.6c0,0.1,0.1,0.3,0.1,0.4c0,0.2,0.1,0.3,0.3,0.5c0,1.5-0.1,3.1,0,4.6c0,1.5,0.1,3.1,0.2,4.7
		c0.6-0.2,1.2-0.3,2-0.5c0.8-0.2,1.6-0.3,2.5-0.5c0.8-0.1,1.6-0.2,2.4-0.2c0.8,0,1.4,0.1,2,0.3c-0.1,0.2-0.2,0.4-0.3,0.5
		c-0.1,0.1-0.3,0.2-0.5,0.3c-0.2,0.1-0.4,0.3-0.6,0.6c-0.2,0.3-0.5,0.5-0.7,0.5c-0.5,0.1-1,0.3-1.6,0.4c-0.6,0.2-1.2,0.3-1.8,0.5
		c-0.6,0.2-1.2,0.4-1.8,0.5c-0.6,0.2-1.1,0.4-1.6,0.5c0.1,1.2,0.1,2.5,0.2,3.7C265.4,31.9,265.5,33.2,265.5,34.4z"/>
	<path fill="#F2F2F2" d="M291.7,21.6c-0.3,2.6-0.6,5.4-1,8.3c-0.4,2.9-0.7,5.5-0.8,7.7c0,0.1,0,0.2-0.1,0.4
		c-0.1,0.2-0.1,0.3-0.1,0.4c0,0.1,0.1,0.1,0.3,0.1c0.2-0.1,0.3-0.1,0.3,0.1c-0.1,0.2-0.2,0.4-0.3,0.7c-0.1,0.2-0.3,0.5-0.5,0.7
		c-0.2,0.2-0.3,0.4-0.4,0.6c-0.1,0.2-0.2,0.2-0.3,0.2c-0.2,0-0.4-0.3-0.4-0.8c0-0.5-0.1-1.1-0.1-1.8c0-3.7,0.1-6.8,0.3-9.3
		c0.2-2.5,0.4-4.7,0.6-6.8c-1,0.3-2.1,0.7-3.1,1.1c-1.1,0.4-2.1,0.8-3.2,1.3c-0.2,0.1-0.3,0.1-0.5,0.2c-0.2,0-0.3,0.1-0.4,0.2
		c-0.2,0.1-0.4,0.2-0.6,0.3c-0.2,0.1-0.4,0.3-0.6,0.4c-0.4,0.2-0.8,0.5-1.2,0.7c-0.4,0.2-0.7,0.4-1.1,0.7c-0.3,0.2-0.7,0.1-1-0.2
		c-0.4-0.3-0.6-0.5-0.7-0.6c-0.1-0.1-0.2-0.3-0.5-0.5c-0.2-0.2-0.4-0.5-0.4-0.8c0-0.2,0.1-0.4,0.3-0.7c0.1-0.2,0.1-0.3,0.1-0.4
		c0-0.1,0-0.2,0.1-0.3c1.3-1.2,2.8-2.2,4.4-3c1.6-0.8,3.3-1.5,5.1-1.9c0.1,0,0.3-0.1,0.5-0.1c0.2-0.1,0.4-0.1,0.5-0.1
		c0.2,0,0.3,0,0.4,0c0.1,0.1,0.2,0.1,0.4,0c0.7-0.1,1.3,0,1.8,0.3c0.5,0.3,0.9,0.6,1.3,0.9c0.3,0.4,0.6,0.7,0.8,1.1
		C291.7,21.1,291.7,21.4,291.7,21.6z M302.8,36.5c-0.3-0.1-0.5-0.2-0.7-0.5c-0.2-0.2-0.4-0.5-0.7-0.9c-0.2-0.3-0.5-0.6-0.8-0.9
		c-0.3-0.3-0.5-0.6-0.5-0.8c-0.2-1.6-0.4-3.5-0.5-5.5c-0.1-2-0.2-4.1-0.2-6.3c0-2.2,0-4.5,0.1-6.8c0.1-2.3,0.2-4.6,0.4-6.9
		c0-0.3,0.2-0.4,0.5-0.3c0.3,0.1,0.4,0.2,0.5,0.2c0.1,0,0.2,0.1,0.3,0.4c0.1,0.2,0.3,0.5,0.5,0.8c0.1,0.2,0.2,0.4,0.4,0.6
		c0.1,0.2,0.2,0.4,0.4,0.8c0.3,1,0.6,2.4,0.8,4.4c0.2,2,0.3,4.1,0.4,6.4c1.6-0.3,3.2-0.6,5-0.7c1.7-0.2,3.4-0.2,4.9-0.1
		c0.4,0,0.9,0.1,1.4,0.3c0.5,0.2,0.8,0.4,0.8,0.7c-0.1,0.2-0.3,0.3-0.5,0.4c-0.2,0.1-0.5,0.1-0.8,0.2c-0.3,0-0.6,0.1-1,0.1
		c-0.4,0.1-0.8,0.2-1.2,0.3c-1.3,0.2-2.7,0.3-4.2,0.5c-1.5,0.2-2.9,0.5-4.3,0.8c0,1.6,0,3.2,0,4.8c0,1.5-0.1,2.9-0.2,4.1
		c-0.1,1.2-0.2,2.1-0.3,2.9C303,36.2,302.9,36.5,302.8,36.5z"/>
</g>
</svg>
