<?xml version="1.0" encoding="utf-8"?><!-- Generator: Adobe Illustrator 18.0.0, SVG Export Plug-In . SVG Version: 6.00 Build 0)  --><!DOCTYPE svg PUBLIC "-//W3C//DTD SVG 1.1//EN" "http://www.w3.org/Graphics/SVG/1.1/DTD/svg11.dtd"><svg fill="#de8d19" version="1.1" id="Layer_1" xmlns="http://www.w3.org/2000/svg" xmlns:xlink="http://www.w3.org/1999/xlink" x="0px" y="0px"	 viewBox="31.3 -42.9 248.9 87.4" enable-background="new 31.3 -42.9 248.9 87.4" xml:space="preserve"><g>	<path d="M220.6-2.7c-2,2.2-4.8,3.6-6.8,3.8c-2.2,0.3-4.2,0.5-6.4,0.7s-2.9,0.7-2.3,2.9c0.9,3.8,3.2,7,6,9.6		c0.5,0.5,1.2,0.9,1.9,1.1c3.7,1.1,7.5,2.5,11.4,3.2c5.7,0.9,11.5,1.5,17.3,2.2c2.2,0.3,4.2,0.3,6.4,0c3.4-0.3,7-0.9,10.5-1.2		c4.4-0.4,8.8-1.5,12.8-3.3c2.2-0.9,4.2-2,5-4.5c0.7-2.2,1.8-4.1,2.6-6.3c0.5-1.4,0.9-2.9,1.1-4.2c0.1-0.5-0.1-1.4-0.5-1.6		c-0.7-0.5-1.5,0.1-1.8,0.7c-1.1,2.6-3.2,4.7-4.8,6.8c-1.4,1.9-3.2,3.7-5.3,4.4c-2.6,0.9-5.3,1.6-8.1,2.2c-4,0.7-7.8,0.9-11.9,0.9		c-3,0-6,0.1-9.2,0.1c-1.8,0-3.6,0.1-5.3-0.1c-2.3-0.1-4.7-0.5-7-0.8c-4.2-0.4-8.3-1.5-12.2-3.3c-1.5-0.5-2.6-1.5-3.3-3.4		c0.7-0.3,1.4-0.5,2-0.7c3.4-0.7,6.8-1.5,9.8-3.4c0.3-0.1,0.5-0.3,0.8-0.4c1.5-0.9,3-1.8,4.4-3c2-1.8,1.5-6-0.9-7.1		c-0.9-0.5-2.3-0.5-3.4-0.5c-1.5-0.1-3.2,0-4.7,0c-2.6,0-5.3-0.3-8,0.1c-4,0.5-7.8,0.5-11.7,0.8c-4,0.3-8,0.7-11.9-0.7		c-1.1-0.4-1.8,0.5-1.5,1.6c0.5,1.6,1.5,3,3.3,3.3c3.4,0.4,6.8,0.9,10.3,0.9c4.2,0.1,8.3-0.3,12.6-0.5c1.9-0.1,3.8-0.3,5.7-0.3		C218.6-2.7,219.6-2.7,220.6-2.7z"/>	<path d="M74.7-10.2C74.8-10.1,75-10,75-9.8c-0.5,0.9-1.1,2-1.6,3c-2.5,3.8-5,7.6-7.4,11.5c-4.7,7.6-9.3,15.5-13.8,23.2		c-2.3,4-4.5,8-6.7,12c-0.4,0.8-0.7,1.8-0.5,2.7c0.1,0.7,0.7,1.4,1.4,1.8c0.3,0.1,1.2-0.3,1.6-0.7c0.9-1.2,1.9-2.5,2.9-3.7		c0.8-1.2,1.4-2.5,2.2-3.6c1.8-2,3.3-4.4,4.5-6.8c0.9-2.2,3-3.8,3.4-6.4c0.1-0.4,0.5-0.8,0.9-1.2c0.8-1.1,1.8-2.2,2.5-3.3		c0.9-1.4,1.6-3,2.5-4.4c1.1-2,2-4,3.4-5.9c2.5-3.4,4.1-7.2,6.3-10.9c1.1-2,2.3-4,3.7-5.9c2.5-3.7,4.9-7.5,7.2-11.2		c1.8-2.7,3.4-5.5,5.2-8.1c1.1-1.6,1.1-3.6-0.3-5.3c-1.1-1.5-2.2-1.4-3,0.3c-0.4,1.1-0.8,2.2-1.4,3.3c-2,3.3-4.1,6.7-6.1,9.8		c-0.5,0.9-1.5,1.8-2.6,2.3c-1.8,0.9-3.7,1.5-5.6,2.2c-1.6,0.5-3.4,0.8-5.2,1.2c-2.3,0.5-4.5,0.9-7,0.3c-0.5-0.3-1.8,0-2,0.4		c-0.3,0.5-0.1,1.6,0.1,2.2c1.5,2.5,3.7,3.4,6.6,2.7c1.8-0.4,3.7-0.8,5.6-1.2C72.8-9.7,73.8-10,74.7-10.2z"/>	<path d="M233.8-29.5c0.1,0.1,0.1,0.3,0.1,0.5c-3.7,2.3-7,5-11.2,6.4c-0.8,0.3-1.6,0.7-2.3,1.2c-0.4,0.3-0.7,0.9-0.5,1.5		c0.1,1.4,2.5,3.4,3.8,3.4c1.6,0,3.4,0,5-0.3c2.9-0.4,5.7-0.9,8.6-1.2c2.3-0.1,3.8-1.5,5.6-2.6c0.3-0.3,0.4-0.7,0.4-1.2		c0.1-1.4-1.1-2.3-2.6-2.2c-1.4,0.3-2.7,0.5-4.1,0.7c-0.5,0.1-0.9,0-1.5,0c0.3-0.5,0.5-0.8,0.8-0.9c1.6-1.1,3.4-2.2,4.9-3.3		c0.9-0.9,2-1.9,1.9-3.6c-0.3-2.2-1.5-3.6-3.7-3.7c-2.5-0.3-4.9-0.1-7.2-0.3c-0.5,0-1.2-0.1-2.3-0.1c0.9-0.9,1.6-1.5,2.3-2		c0.4-0.3,0.9-0.5,1.2-0.9c1.1-0.9,1.1-2.5,0.1-3.7c-0.9-1.4-2.2-1.5-3.4-0.5c-0.8,0.5-1.6,1.2-2.3,2c-3.7,3.8-7.8,7.5-11.2,11.6		c-2.5,3-4.4,6.7-6.4,10c-0.1,0.1-0.1,0.1-0.1,0.3c-0.7,1.9-0.4,3.2,1.4,4.4c0.7,0.5,1.4,0.7,1.9-0.1c0.7-0.8,1.4-1.5,1.8-2.5		c2.6-4.4,5.3-8.6,8.9-12.3c0.9-1.1,2-1.5,3.3-1.1c1.8,0.5,3.4,0.5,5.2,0.4C232.5-29.8,233.1-29.5,233.8-29.5z"/>	<path d="M44.6-9c0.8-0.7,1.4-1.4,2-2c2.3-2.2,4.7-4.1,6.8-6.4c1.8-1.9,3.3-4.1,5-6.1c2-2.5,2.2-3.3,0.4-6c-0.5-0.8-1.1-1.4-2.2-1.4		c-0.9,0-1.4,0.7-1.6,1.5c-1.5,3.2-3.4,5.9-5.9,8.2c-0.3,0.3-0.5,0.7-0.9,0.9c-3,3.4-6.3,6.4-10.1,9c-1.8,1.2-3.8,2.2-5.7,3.4		c-1.4,0.9-1.5,1.4-0.9,3c0.8,2.5,2.2,3,4.5,2.2c1.8-0.7,3.7-1.5,5.6-1.9c2.2-0.5,3.4,0.8,2.7,3c-0.4,1.5-1.2,3-2.2,4.4		c-1.9,3-4.5,5.2-7.2,7.5c-0.5,0.4-1.2,0.9-1.5,1.5c-0.9,1.5-0.3,3.2,1.5,3.3c0.7,0.1,1.5-0.3,2.3-0.5c4.2-2,7.2-5.7,10-9.4		c1.6-2.5,2.2-5.2,1.2-8.2C47.8-5.7,46.7-7.5,44.6-9z"/>	<path d="M147-12c-0.9,1.4-1.8,2.9-2.9,4.2c-2.6,3.7-5.9,6.7-9.3,9.8c-2.6,2.3-2.5,2.9-0.3,5.3c0.1,0.1,0.3,0.1,0.5,0.4		c1.8-1.1,3.7-2.3,5.3-3.8c2-2,3.8-4.2,5.7-6.4c1.8-2.3,3.4-4.8,5.2-7.1c1.6-2.5,0-6.6-2.7-7.5c-3.3-1.1-6.4-0.9-9.6-0.1		c-4,1.1-7.8,2.6-11.7,4c-1.5,0.5-2.9,1.2-4.2,1.9c-1.4,0.8-1.5,1.9-0.5,3.2c1.1,1.5,1.8,1.6,3.7,0.9c3.2-1.2,6.1-2.3,9.3-3.7		c2.9-1.2,5.7-1.4,8.6-1.8C145.1-13,146.1-13.1,147-12z"/>	<path d="M148.7,7.7c0.4,0.7,0.5,1.5,0.9,2.2c0.9,1.4,2.2,1.5,3.3,0.3c0.7-0.7,1.2-1.5,1.6-2.3c1.8-3.2,3.4-6.4,5.3-9.6		c1.6-2.7,3.6-5.3,5.3-8.1c0.5-0.8,1.5-1.4,2.2-2.2c0.7-0.8,1.5-1.5,2.2-2.5c0.9-1.4-0.1-4.5-1.8-4.9c-0.5-0.1-1.5,0.1-2,0.4		c-0.7,0.4-1.4,1.2-1.8,1.9c-2,2.9-4.2,5.5-6,8.5c-3,4.8-5.7,9.8-8.6,14.6C149.2,6.4,149.1,7,148.7,7.7z"/></g></svg>