<?xml version="1.0" encoding="utf-8"?><!-- Generator: Adobe Illustrator 18.0.0, SVG Export Plug-In . SVG Version: 6.00 Build 0)  --><!DOCTYPE svg PUBLIC "-//W3C//DTD SVG 1.1//EN" "http://www.w3.org/Graphics/SVG/1.1/DTD/svg11.dtd"><svg fill="#f2f2f2" version="1.1" id="Layer_1" xmlns="http://www.w3.org/2000/svg" xmlns:xlink="http://www.w3.org/1999/xlink" x="0px" y="0px"	 viewBox="0 0 315.9 57" enable-background="new 0 0 315.9 57" xml:space="preserve"><g>	<path d="M3.7,26.7c-0.1,0.3-0.3,0.5-0.5,0.7c-0.2,0.2-0.4,0.4-0.6,0.6c-0.1,0.1-0.3,0.4-0.5,0.7C2,29,1.8,29.3,1.6,29.5		c-0.2,0.3-0.4,0.6-0.5,0.8c-0.2,0.2-0.3,0.4-0.5,0.4c-0.1,0-0.2-0.1-0.2-0.3C0.1,28.8,0,27.2,0,25.5c0-1.7,0.1-3.3,0.2-4.9		s0.3-3.1,0.6-4.6C1,14.7,1.3,13.3,1.6,12c0.1-0.2,0.2-0.3,0.4-0.4c0.2-0.1,0.4-0.2,0.6-0.4c0.2-0.1,0.3-0.2,0.5-0.4		c0.1-0.2,0.3-0.3,0.5-0.4c0.2-0.1,0.5-0.2,0.8-0.3C4.5,10,4.8,10,5,10c0.5,0.8,0.9,1.6,1.1,2.3c0.5-0.4,1.2-0.9,1.9-1.4		c0.7-0.5,1.5-1,2.3-1.4c0.8-0.4,1.6-0.8,2.4-1.1c0.8-0.3,1.5-0.5,2.1-0.5c0.4,0,0.7,0.1,1,0.2c0.3,0.1,0.5,0.3,0.8,0.4		c0.4,0.2,0.7,0.5,1,0.7c0.3,0.2,0.6,0.5,0.8,0.9c0.1,0.2,0.3,0.5,0.5,0.6c0.2,0.2,0.3,0.4,0.4,0.6c0,0.3,0,0.6-0.1,1		c-0.1,0.4-0.3,0.7-0.4,1c-0.4,1.2-1,2.5-1.8,4c-0.8,1.4-1.8,2.9-2.8,4.4c-1,1.5-2.1,2.9-3.2,4.2c-1.1,1.3-2.1,2.5-3,3.5		c0.5-0.2,1.2-0.6,2.1-1c0.9-0.4,1.9-0.8,3-1.2c1.1-0.4,2.2-0.8,3.3-1.2c1.1-0.4,2.1-0.6,3-0.8c0.2,0,0.5-0.1,0.8-0.1s0.6,0,0.9,0		c0.2,0,0.4,0.1,0.5,0.3c0.1,0.2,0.3,0.4,0.5,0.5c0.2,0.2,0.5,0.3,0.9,0.4c0.3,0.1,0.5,0.3,0.4,0.8c-0.1,0.3-0.3,0.7-0.5,1.2		c-0.3,0.4-0.5,0.8-0.8,1.2c-0.7,0.9-1.4,1.9-2.3,3c-0.8,1.1-1.7,2.1-2.6,3.2c-0.9,1.1-1.8,2.2-2.6,3.2c-0.8,1.1-1.6,2-2.2,3		c1.1-0.3,2.4-0.7,3.9-1.2c1.5-0.4,3.1-0.8,4.7-1.2c1.6-0.4,3.2-0.7,4.8-1.1s3-0.6,4.2-0.7c-0.1,0.2-0.2,0.5-0.3,0.6		c0,0.2-0.1,0.4-0.2,0.6c-0.2,0.3-0.5,0.6-0.8,0.8c-0.3,0.2-0.7,0.5-1.2,0.8c-0.4,0.2-0.8,0.5-1.2,0.9c-0.4,0.4-0.8,0.8-1.2,1.2		c-2.5,0.5-5,1-7.5,1.5c-2.5,0.5-5.1,0.8-8,1c-0.4,0-0.6-0.2-0.6-0.6c0-0.1,0-0.3,0.1-0.6c0.1-0.3,0.1-0.5,0.1-0.6		c0-0.2,0.1-0.4,0.3-0.5c0.2-0.2,0.3-0.3,0.5-0.5c0.5-1.1,1.1-2.2,1.8-3.4s1.3-2.4,2-3.7c0.7-1.2,1.4-2.4,2-3.6		c0.6-1.2,1.2-2.2,1.7-3.1c-1.2,0.3-2.9,0.9-4.9,1.7c-2,0.8-4.2,1.6-6.5,2.4c-0.1,0-0.3,0-0.4-0.2c-0.1-0.2-0.2-0.5-0.1-0.9		c0-0.2,0-0.5,0.1-0.7c0.1-0.2,0.1-0.4,0.2-0.5c0-0.2,0.1-0.4,0.1-0.5c0-0.1,0.1-0.3,0.1-0.6c1.5-2.4,3-4.9,4.6-7.5		c1.6-2.7,2.9-5.6,4-8.7c-0.4,0-1,0.1-1.7,0.2c-0.7,0.1-1.5,0.3-2.3,0.5c-0.8,0.2-1.7,0.5-2.5,0.8c-0.8,0.3-1.6,0.6-2.2,1		c-0.4,1.7-0.8,3.5-1.2,5.5C4.1,23.1,3.8,25,3.7,26.7z"/>	<path d="M45.7,16.8c0,0.1-0.2,0.2-0.3,0.3c-0.2,0.1-0.3,0.1-0.3,0.2c-0.3,0.3-1,0.5-1.9,0.4c-0.8,0-1.6,0-2.6,0		c-1,0-2.1,0.1-3.2,0.3c0.4,1.6,0.6,3.2,0.6,4.8c0,1.8,0.1,3.6,0.2,5.4c0.1,1.8,0.3,3.4,0.5,5c0.1,0.3,0.2,0.6,0.3,0.8		c0.1,0.2,0.3,0.3,0.7,0.2c0.7-0.1,1.5-0.4,2.6-0.8c1.1-0.4,2.2-0.8,3.3-1.3c1.2-0.5,2.3-0.9,3.4-1.4c1.1-0.5,2.1-0.8,2.9-1.1		c0,0.1-0.1,0.3-0.5,0.5c-0.4,0.2-0.6,0.4-0.8,0.6c-0.2,0.3-0.5,0.7-0.8,1c-0.3,0.4-0.6,0.7-1,0.9c-0.6,0.4-1.3,0.8-2.2,1.3		c-0.9,0.5-1.8,1-2.7,1.4c-0.9,0.5-1.8,0.9-2.6,1.3c-0.8,0.4-1.5,0.6-1.9,0.8c-0.4,0.1-0.7,0.1-0.9,0c-0.2-0.1-0.4-0.1-0.7-0.2		c-0.4,0-0.8-0.1-1.2-0.1c-0.4,0-0.8-0.2-1-0.4c-0.4-0.6-0.7-1.4-0.9-2.3c-0.3-1.1-0.5-2.3-0.7-3.7c-0.2-1.4-0.3-2.8-0.3-4.2		c0-1.4,0.1-2.9,0.3-4.3c0.2-1.4,0.5-2.8,0.9-4c-0.4,0.1-0.9,0.2-1.3,0.3c-0.4,0.1-0.9,0.2-1.4,0.3c-0.1,0-0.1,0-0.1-0.1		c0-0.1,0-0.2-0.1-0.3c-0.2-0.2-0.2-0.4-0.1-0.6c0.3-0.3,0.5-0.6,0.6-0.9c0.1-0.2,0.4-0.5,0.9-0.6c0.9-0.4,1.8-0.8,2.9-1		c1.1-0.2,2.2-0.3,3.3-0.3c1.1,0,2.2,0.1,3.2,0.4c1,0.2,1.9,0.6,2.6,1.2L45.7,16.8z M73.5,31.2c-0.1,0.2-0.3,0.4-0.5,0.7		c-0.2,0.3-0.4,0.5-0.5,0.6c-0.3,0.5-0.6,0.9-0.9,1.2c-0.3,0.3-0.5,0.3-0.6-0.1c-0.3-1-0.5-2.1-0.6-3.4c-0.1-1.3-0.2-2.7-0.2-4.2		c0-1.5,0-3,0.1-4.6c0.1-1.6,0.2-3.1,0.3-4.6c-2.1,1.1-4.3,2.1-6.8,3.1c-2.4,1-4.9,1.9-7.3,2.7c-2.4,0.8-4.7,1.6-6.9,2.2		c-2.2,0.6-4,1.1-5.5,1.5c-0.5,0.1-0.7-0.1-0.5-0.5c0-0.1,0.1-0.2,0.3-0.4c0.1-0.2,0.2-0.3,0.3-0.3c1.6-0.6,3.6-1.4,5.9-2.2		c2.3-0.8,4.6-1.7,7.1-2.7c2.4-0.9,4.9-1.9,7.3-2.9c2.4-1,4.6-2,6.5-2.9c0.1-0.5,0.2-1,0.2-1.4c0-0.5,0.1-0.9,0.2-1.4		c0-0.2,0.1-0.4,0.2-0.6c0.1-0.2,0.2-0.3,0.3-0.5c0.2-0.6,0.5-1,0.6-1.2c0.2-0.2,0.5-0.4,0.6-0.5c0.2-0.1,0.4-0.1,0.6-0.1		c0.2,0,0.4,0,0.6,0c0.2,0,0.3,0,0.4,0.1C74.9,9,75,9.2,75,9.5s0,0.6,0.1,0.9c0,3.5-0.2,6.9-0.5,10.4C74.2,24.3,73.9,27.7,73.5,31.2		z M62.5,42.2c1.1-0.3,2.3-0.6,3.5-1.1c1.2-0.4,2.5-0.9,3.6-1.3c1.2-0.4,2.3-0.8,3.2-1.2c1-0.4,1.8-0.7,2.4-0.9		c0.7-0.2,1.3-0.5,1.9-0.8c0.6-0.3,1.4-0.6,2.4-0.8c0.2-0.1,0.3,0,0.3,0.3c0,0.3-0.1,0.6-0.3,0.9c-0.7,0.5-1.7,1.1-3,1.8		c-1.3,0.7-2.7,1.3-4.2,2c-1.5,0.6-3.1,1.3-4.8,1.8c-1.6,0.6-3.1,1-4.5,1.4c-0.2,0-0.3,0-0.4-0.1c-0.1-0.1-0.2-0.2-0.4-0.2		c-0.2-0.1-0.5-0.2-0.7-0.2c-0.2,0-0.4-0.1-0.5-0.3c-0.2-0.3-0.3-0.6-0.4-0.8c-0.2-1-0.3-2.1,0-3.3c0.2-1.3,0.5-2.5,0.9-3.8		c0.4-1.2,0.8-2.4,1.3-3.4c0.4-1,0.7-1.8,0.9-2.3c0.4-0.5,0.7-0.9,1-1.2c0.3-0.3,0.4-0.3,0.4,0c-0.3,1.2-0.6,2.6-0.8,3.9		c-0.2,1.4-0.4,2.7-0.6,4c-0.1,1-0.3,1.9-0.6,2.8C62.9,40.5,62.7,41.4,62.5,42.2z"/>	<path d="M113.7,20.7c0.5,0.1,1,0.2,1.4,0.4c0.5,0.2,0.9,0.4,1.3,0.8c0.4,0.4,0.7,0.8,0.9,1.4c0.2,0.6,0.4,1.3,0.4,2.2		c-0.1,1.8-0.5,3.6-1,5.3c-0.5,1.7-1.2,3.3-1.9,4.7c-0.7,1.5-1.5,2.8-2.2,3.9c-0.8,1.2-1.5,2.1-2.1,2.9c-0.7,0.6-1.5,1-2.3,1.2		c-0.9,0.1-1.6,0-2.3-0.4c-0.3-0.6-0.6-1.2-1.1-1.9c-0.4-0.7-0.9-1.4-1.3-2.1c-0.4-0.7-0.8-1.4-1.1-2.2c-0.3-0.7-0.6-1.4-0.6-2.1		c-0.1-1.1-0.1-2.1,0-3.3c0.2-1.1,0.4-2.2,0.8-3.3c0.4-1.1,0.8-2.1,1.2-3.1c0.5-1,0.9-1.9,1.3-2.8c0.2-0.3,0.4-0.7,0.6-1.2		c0.2-0.5,0.5-0.9,0.9-1.3c0.2-0.3,0.5-0.5,0.7-0.5c0.2,0,0.5-0.2,0.7-0.4c0.2-0.1,0.5-0.3,0.7-0.6c0.2-0.3,0.4-0.4,0.7-0.4		c0,0,0,0.2,0,0.5c0,0.3-0.1,0.7-0.3,1.1c-0.1,0.4-0.3,0.9-0.4,1.4c-0.2,0.5-0.3,0.9-0.5,1.3c0.8-0.4,1.7-0.7,2.8-1		C112.2,21,113.1,20.8,113.7,20.7z M104.3,36c0,0.2,0.3,0.5,0.8,0.6c0.5,0.2,0.8,0.3,0.9,0.3c0.3,0,0.8-0.2,1.3-0.5		c0.4-0.5,0.9-1.1,1.3-1.8c0.5-0.7,0.9-1.4,1.3-2.2c0.4-0.7,0.8-1.5,1.1-2.1c0.3-0.7,0.6-1.2,0.8-1.7c0.4-1,0.6-1.9,0.6-2.8		s-0.6-1.4-1.7-1.5l-3.2-0.2c-0.3,0.8-0.6,1.7-0.9,2.8c-0.3,1-0.6,2.1-0.9,3.2s-0.6,2.1-0.8,3.2C104.5,34.4,104.4,35.3,104.3,36z		 M131.1,43.2c-0.3-0.2-0.6-0.7-0.9-1.5c-0.3-0.7-0.6-1.4-0.9-1.9c-0.3-0.4-0.6-0.7-0.8-0.9c-0.2-0.2-0.4-0.6-0.6-1.1		c-0.5-2-0.9-4.3-1-6.9c-0.1-2.6-0.2-5.2,0-7.8c0.1-2.6,0.4-5.2,0.7-7.7c0.4-2.5,0.8-4.7,1.3-6.6c0.2-0.7,0.4-1.3,0.6-1.9		c0.2-0.6,0.4-1.2,0.7-1.9c0.2-0.2,0.3-0.3,0.4-0.4c0.3-0.2,0.5-0.1,0.6,0.4c0.2,1,0.4,2.2,0.5,3.7c0.1,1.5,0.2,2.7,0.2,3.9		c0,0.8,0,1.4,0,1.8c0,0.4-0.1,0.7-0.1,1c0,0.3-0.1,0.5-0.2,0.7c-0.1,0.2-0.1,0.5-0.2,0.8c-0.1,1-0.2,2-0.3,3c-0.1,1-0.2,2-0.3,3		c2.3-1.4,4.8-2.5,7.3-3.2c2.6-0.7,5.2-1.2,7.8-1.3c0.4,0.3,0.9,0.6,1.4,0.8c0.6,0.2,1,0.5,1.3,0.9c0.2,0.3,0.5,0.5,0.6,0.5		c0.2,0,0.3,0.1,0.2,0.3c0,0.1-0.1,0.2-0.3,0.2c-0.2,0-0.4,0-0.6,0.1c-0.2,0-0.5,0-0.7,0c-0.2,0-0.4,0-0.4,0		c-2.5,0.2-5.2,0.8-8.1,1.6c-2.9,0.8-5.8,1.7-8.7,2.7c-0.1,3.2-0.1,6.2-0.1,9.1C130.9,37.6,131,40.4,131.1,43.2z"/>	<path d="M166.5,18.5c0.1,0.5,0.2,1.4,0.3,2.7c0,1.2,0,2.7,0,4.3c0.2-0.1,0.5-0.2,0.8-0.3c0.3-0.1,0.6-0.2,0.9-0.3		c0.4,0.1,1,0,1.8-0.2c0.8-0.2,1.3-0.3,1.7-0.2c0,0.2-0.2,0.4-0.4,0.5c-0.2,0.1-0.4,0.3-0.5,0.6c-0.5,0.7-0.9,1.2-1.4,1.5		c-0.5,0.3-1,0.8-1.7,1.3c-0.2,0.1-0.5,0.2-0.6,0.3c-0.2,0.1-0.4,0.2-0.6,0.3c-0.1,2.3-0.4,4.5-0.7,6.7c-0.3,2.2-0.7,3.9-1.1,5.1		l-0.3,0.3c-0.1,0.1-0.2,0.2-0.3,0.4c-0.1,0.2-0.3,0.4-0.3,0.6c-0.1,0.2-0.2,0.3-0.3,0.3c-0.2,0-0.3-0.2-0.2-0.5		c0.1-0.4,0.1-0.7,0.1-1c0-1.2,0.1-2.8,0.1-4.7c0-1.9,0-3.8,0-5.7c-0.8,0.4-1.5,0.9-2.3,1.3s-1.5,0.8-2.2,1.2		c-0.7,0.4-1.3,0.7-1.9,1c-0.6,0.3-1.1,0.5-1.4,0.7c-0.5,0.2-1,0.3-1.5,0.4c-0.5,0.1-1.1,0-1.6-0.2c-0.2-0.2-0.3-0.4-0.2-0.6		c0.1-0.2,0.2-0.3,0.3-0.5c0-0.2,0-0.4,0-0.6c0-0.2,0.1-0.5,0.3-0.7c0.2-0.1,0.4-0.3,0.6-0.5c0.2-0.2,0.4-0.3,0.5-0.5		c1.2-0.8,2.7-1.7,4.3-2.5c1.6-0.9,3.3-1.6,5.1-2.3c0-0.9-0.1-1.7-0.1-2.4c0-0.7,0-1.3-0.1-1.8c-0.1-0.9-0.2-1.6-0.3-1.9		c-0.1-0.4-0.3-0.6-0.5-0.5c-0.7,0-1.5,0.1-2.4,0.3c-0.9,0.1-1.7,0.3-2.6,0.4c-0.9,0.1-1.7,0.3-2.5,0.5c-0.8,0.2-1.5,0.3-2.2,0.5		l-1-0.1c-0.1,0-0.2-0.2-0.1-0.5c0-0.3,0.1-0.6,0.1-1c0-0.2,0.2-0.4,0.4-0.5c0.2-0.1,0.4-0.2,0.5-0.3l2.7-1.2		c0.9-0.4,1.8-0.9,2.9-1.5c1.1-0.6,2.2-1,3.3-1c0.3,0,0.7,0,1.2,0.1c0.5,0,0.9,0.1,1.2,0.3c0.3,0.1,0.6,0.3,0.9,0.6		c0.3,0.3,0.5,0.6,0.8,0.8c0.2,0.2,0.4,0.4,0.5,0.6C166.4,18,166.4,18.2,166.5,18.5z M181.2,31.1c0,0.4,0,0.8,0,1.2		c-0.1,0.4-0.2,0.8-0.3,1.2c0,0.2-0.1,0.5-0.1,0.9c0,0.3-0.1,0.6-0.2,0.9c-0.2,0.5-0.5,1-0.9,1.3c-0.7-1.8-1.2-3.7-1.6-5.8		c-0.4-2.1-0.7-4.2-0.9-6.5c-0.2-2.2-0.3-4.5-0.3-6.8c0-2.3,0.1-4.5,0.3-6.7c0-0.2,0.1-0.6,0.1-1.1c0-0.5,0.2-0.7,0.5-0.6l1,0.1		c0.3,0.1,0.6,0.2,0.8,0.4c0.1,0.1,0.2,0.3,0.3,0.8c0,0.4,0.1,0.9,0.2,1.4c0.1,0.2,0.3,0.5,0.5,0.7c0.2,0.2,0.3,0.5,0.3,0.8		c-0.1,1.5-0.1,3-0.1,4.5c0,1.5,0,2.9,0.1,4.4c0.8-0.1,1.6-0.2,2.4-0.2l2.8-0.4c1-0.1,1.8-0.3,2.6-0.4c0.8-0.1,1.5-0.2,2-0.3		c0.5,0,0.7,0,0.7,0c0,0,0,0.1-0.1,0.3c-0.1,0.1-0.3,0.3-0.4,0.5c-0.2,0.2-0.4,0.5-0.6,0.9c-0.2,0.3-0.5,0.5-0.7,0.5		c-1.1,0.5-2.5,0.9-4.1,1.1c-1.6,0.2-3.1,0.3-4.5,0.2c0,1.2,0.1,2.3,0.1,3.4C181.1,28.8,181.1,29.9,181.2,31.1z"/>	<path d="M209.2,17.7c0.4,0.5,0.7,1,0.9,1.3c0.2,0.3,0,0.5-0.5,0.6c-1.7,0.4-3.4,0.7-4.9,0.9c-1.6,0.2-3.1,0.4-4.6,0.5		c-0.2,1.2-0.5,2.5-0.7,3.9c-0.2,1.5-0.4,3-0.5,4.5s-0.2,3-0.3,4.3c0,1.4,0,2.5,0,3.5c2-0.4,3.9-0.9,5.5-1.5		c1.7-0.6,3.6-1.3,5.7-2.2c0.2,0,0.2,0.1-0.1,0.3c-0.3,0.2-0.4,0.4-0.3,0.7c0.1,0.5-0.1,0.9-0.6,1.4c-0.5,0.5-0.8,0.9-1.1,1.3		c-1.1,0.8-2.4,1.5-4,2.2c-1.6,0.6-3,1.1-4.2,1.3c-0.6,0-1.1-0.1-1.5-0.4c-0.2-0.1-0.4-0.2-0.6-0.4c-0.2-0.1-0.3-0.3-0.4-0.6		c-0.1-0.2-0.2-0.5-0.2-0.8c0-0.3,0-0.6-0.1-0.9c-0.1-0.2-0.2-0.5-0.3-0.8c-0.1-0.3-0.2-0.6-0.2-0.8c-0.3-2.3-0.4-4.7-0.3-7.3		c0.1-2.5,0.4-5.1,1-7.7c-0.2-0.1-0.4-0.2-0.6-0.4c-0.2-0.1-0.5-0.3-0.7-0.4c-0.5-0.3-1-0.6-1.4-0.9c-0.4-0.3-0.6-0.6-0.6-0.8		c0-0.3,0.1-0.5,0.2-0.6c0.1-0.1,0.3-0.3,0.4-0.5c0.2-0.2,0.4-0.5,0.6-0.7c0.2-0.2,0.5-0.4,0.9-0.5c1.3-0.3,2.8-0.5,4.6-0.7		c1.8-0.2,3.4-0.3,4.7-0.2c1.1,0,2.1,0.3,3,0.9C208.1,16.6,208.6,17,209.2,17.7z M223.5,11.2c0.1,2.3,0.2,4.7,0.2,7.2		c0,2.5,0,5,0,7.3c0,2.4,0,4.5-0.1,6.5c0,2-0.1,3.6-0.2,4.9c-0.1,0.8-0.2,1.4-0.2,1.9c0,0.4-0.1,0.7-0.1,0.8c-0.3,0.1-0.6,0.1-0.6,0		c-0.1-0.2-0.3-0.4-0.5-0.6c-0.3-0.3-0.7-0.6-1.1-0.9c-0.4-0.3-0.6-0.7-0.6-1.2c-0.2-1.7-0.3-3.5-0.5-5.5c-0.1-2-0.2-4.1-0.1-6.3		c-2,0.6-4,1.1-5.9,1.6c-1.9,0.5-4,0.9-6.3,1.1c-0.2,0-0.5,0-0.8-0.1c-0.3-0.1-0.5-0.2-0.8-0.3c-0.2-0.1-0.5-0.1-0.8,0		s-0.5,0-0.6-0.1c0-0.6,0.1-1,0.5-1.4c0.4-0.4,0.9-0.5,1.5-0.5c2.3-0.7,4.5-1.2,6.7-1.7c2.2-0.5,4.3-0.9,6.5-1.4		c0.1-1.8,0.3-3.6,0.5-5.4c0.2-1.8,0.6-3.4,1.1-4.9c0-0.1,0.2-0.3,0.4-0.5c0.2-0.2,0.5-0.5,0.7-0.9c0-0.1,0.2-0.2,0.5-0.3		c0.3-0.1,0.5-0.1,0.6-0.1V11.2z M234.7,9.5c0,3.4,0,6.9-0.1,10.7c-0.1,3.7-0.2,7.3-0.3,10.5c-0.1,3.3-0.2,6.2-0.4,8.6		c-0.1,2.5-0.2,4.1-0.3,4.9c-0.6-0.4-1-0.9-1.3-1.6c-0.2-0.7-0.5-1.5-0.8-2.3c-0.2-0.7-0.6-1.3-1-2c-0.4-0.7-0.6-1.2-0.6-1.5		c0-0.6-0.1-1.7,0-3.5c0-1.8,0.1-3.8,0.1-6.1c0.1-2.3,0.2-4.8,0.3-7.3c0.1-2.5,0.3-4.8,0.5-7c0.2-2.1,0.5-3.9,0.8-5.3		c0.3-1.4,0.6-2.1,1-2.1c0.2,0,0.4,0.1,0.6,0.4c0.1,0.3,0.3,0.5,0.4,0.8c0.1,0.3,0.3,0.6,0.4,0.9C234.2,8.1,234.4,8.7,234.7,9.5z"/>	<path d="M254.5,16.6c0.4,0.4,0.7,0.8,0.9,1.3c0.2,0.5,0.5,0.9,0.6,1.3c0.1,0.3,0.2,0.8,0,1.3c-0.1,0.5-0.2,0.9-0.2,1.3		c0,0.4-0.2,1.1-0.5,2.2c-0.3,1.1-0.7,2.2-1.2,3.5l-1.4,3.8c-0.5,1.2-0.9,2.3-1.1,3c0.7-0.5,1.7-1.2,3-2.1c1.2-0.9,2.6-1.9,3.9-3		c1.4-1.1,2.7-2.2,4-3.4c1.3-1.2,2.4-2.2,3.2-3.2l1-1c0,0.1,0,0.3-0.1,0.5c-0.1,0.2-0.1,0.5-0.2,0.8c-0.1,0.3-0.1,0.6-0.2,0.8		c0,0.2-0.1,0.4-0.1,0.5c0,0.3-0.1,0.7-0.1,1.2c0,0.5-0.1,0.9-0.3,1.3c-0.9,1.7-2.1,3.4-3.7,5.2c-1.6,1.8-3.3,3.4-4.9,4.9		c-1.7,1.5-3.2,2.8-4.6,3.8c-1.4,1.1-2.3,1.7-2.7,2l-1.2,0.8c-0.1,0.1-0.2,0.1-0.3-0.1c-0.1-0.1-0.2-0.3-0.4-0.6		c-0.1-0.2-0.2-0.5-0.3-0.7c-0.1-0.2-0.2-0.4-0.2-0.6c-0.1-0.2-0.1-0.5,0-0.8c0.1-0.3,0.2-0.7,0.3-1.3c0.1-0.4,0.1-0.8,0-1.1		c-0.1-0.4-0.1-0.7,0-1.1c0.6-2.9,1.3-5.9,2.1-8.9c0.7-3,1.5-6,2.3-8.9c-0.2,0-0.5,0.1-0.9,0.2c-0.4,0.1-0.9,0.3-1.4,0.5		c-0.5,0.2-1,0.4-1.5,0.6c-0.5,0.2-1,0.4-1.3,0.5c-0.2,0.1-0.5,0.1-0.7,0c-0.2-0.1-0.4-0.1-0.6-0.1c-0.3,0-0.6,0-1-0.1h-0.2		l-0.1-0.1c-0.1,1.7-0.2,3.4-0.3,5.1c-0.1,1.7-0.2,3.3-0.3,4.8c-0.1,1.5-0.2,2.8-0.3,4c-0.1,1.2-0.2,2.1-0.2,2.7		c-0.2-0.2-0.4-0.5-0.4-0.7c0-0.2-0.1-0.4-0.2-0.7c-0.2-0.4-0.4-0.9-0.5-1.3c-0.1-0.4-0.2-0.9-0.3-1.3c-0.1-0.7-0.2-1.9-0.3-3.6		c-0.1-1.7-0.2-3.5-0.1-5.6c0-2.1,0.2-4.2,0.4-6.3c0.3-2.1,0.7-4.1,1.4-5.8c0.1-0.3,0.3-0.4,0.4-0.4c0.1,0,0.3,0.3,0.3,0.8		c0.1,0.5,0.2,1.1,0.3,1.6c0,0.2,0.1,0.4,0.2,0.4c0.1,0,0.1,0.1,0.1,0.4v1.1c0,0.5,0,0.8-0.1,1.1c1.2-0.5,2.3-0.9,3.4-1.3		c1.1-0.3,2-0.5,3-0.5C252.3,15.1,253.6,15.6,254.5,16.6z M273.5,10.6c0.1,1.1,0.2,2.5,0.2,4.2c0,1.7,0,3.6,0,5.5		c0,2-0.1,4.1-0.1,6.2c-0.1,2.1-0.2,4.2-0.3,6c-0.1,1.9-0.2,3.6-0.4,5.2c-0.1,1.6-0.3,2.7-0.4,3.6c-0.1-0.2-0.2-0.4-0.3-0.6		c-0.1-0.2-0.2-0.5-0.3-0.8c-0.1-0.4-0.3-1-0.4-1.7c-0.1-0.7-0.3-1.3-0.6-1.9c-0.5-2.9-0.8-6.6-1-11.2c-0.2-4.6-0.2-9.9-0.1-15.9		c0.3-1.6,0.6-2.4,1.1-2.4c0.1,0,0.2,0.1,0.2,0.3c0,0.1,0.1,0.3,0.2,0.4c0.2,0.3,0.5,0.6,0.8,1c0.3,0.4,0.6,0.8,0.8,1.2		c0.1,0.2,0.3,0.4,0.4,0.5C273.4,10.4,273.5,10.5,273.5,10.6z"/>	<path d="M291.5,5c-0.6,1.6-1.1,3-1.7,4.3c-0.5,1.3-1,2.5-1.4,3.7c-0.4,1.2-0.8,2.5-1.1,3.7c-0.3,1.3-0.5,2.7-0.7,4.1		c0,0.4-0.1,0.9-0.4,1.3c-0.2,0.5-0.5,0.8-0.9,1.1c-0.3-1.4-0.4-2.8-0.3-4.4c0.1-1.5,0.4-3,0.7-4.6c0.4-1.6,0.8-3.1,1.4-4.7		c0.6-1.6,1.2-3.1,1.8-4.7c-0.7,0-1.5,0.1-2.5,0.4c-1,0.3-2,0.6-3,1.1c-1,0.4-2,0.9-3,1.4c-1,0.5-1.8,0.9-2.4,1.2		c0-0.3,0.1-0.8,0.3-1.3c0.2-0.5,0.4-1,0.6-1.4c0.2-0.4,0.4-0.8,0.6-1.3c0.2-0.5,0.5-0.9,0.9-1.2c0.5-0.3,1.1-0.7,1.9-1.1		c0.8-0.4,1.6-0.8,2.4-1.1c0.8-0.3,1.6-0.6,2.5-0.9c0.8-0.3,1.6-0.4,2.3-0.5c0.3,0,0.7-0.1,1-0.1c0.3,0,0.6,0,0.9,0.1		c0.3,0.1,0.6,0.4,0.7,0.9c0.1,0.4,0.2,0.9,0.1,1.4c0,0.4-0.1,0.8-0.3,1.2C291.9,4,291.7,4.5,291.5,5z M307.9,23.4		c0.3-0.1,0.6-0.1,0.7,0c0.1,0.1,0.3,0.1,0.4,0.2c0.3,0.1,0.6,0.2,0.9,0.3c0.2,0.1,0.4,0.2,0.5,0.3c0.3,0.2,0.7,0.4,1.2,0.6		c0.5,0.2,0.7,0.4,0.7,0.8c-0.5,0.6-1.2,1.1-2.1,1.5s-1.8,0.8-2.6,1c-3.7,1.2-7.6,2.3-11.6,3.2c-4,1-7.8,1.5-11.4,1.5		c-0.1-0.3-0.1-0.6,0.1-0.8c0.2-0.2,0.3-0.5,0.4-0.8c0.1-0.3,0.2-0.6,0.2-0.8c0-0.2,0.2-0.4,0.5-0.6c0.2-0.1,0.4-0.3,0.5-0.6		c0.2-0.3,0.4-0.4,0.8-0.5L307.9,23.4z M295.3,53.4c0,0.9-0.2,1.6-0.6,2.3c-0.1,0.2-0.1,0.4-0.1,0.7c0,0.3,0,0.4-0.1,0.5		c-0.2-0.1-0.5-0.3-0.8-0.6c-0.3-0.3-0.5-0.6-0.6-0.8c-0.6-1.2-1-2.6-1.3-4.1c-0.2-1.5-0.3-3.1-0.2-4.7c0.1-1.6,0.3-3.1,0.6-4.6		c0.3-1.5,0.8-2.8,1.3-4c0.1-0.4,0.3-0.6,0.6-0.7c0.3-0.1,0.5-0.3,0.7-0.6c0.1-0.2,0.3-0.4,0.5-0.7c0.2-0.3,0.4-0.4,0.6-0.4		c0.1,0,0.2,0.1,0.2,0.3c0,0.1,0,0.3,0,0.5l-0.2,2.4c0.7-0.5,1.5-1,2.6-1.5c1-0.5,2.4-0.9,4-1.2c0.4-0.1,0.7-0.1,1.1-0.1		c0.3,0,0.7,0,1.1,0c0.3,0,0.6,0,1-0.1c0.4,0,0.8,0,1,0.1c0.3,0.1,0.6,0.2,0.8,0.4c0.2,0.2,0.5,0.3,0.8,0.5c0,0.2,0.1,0.4,0.2,0.6		s0.1,0.4,0,0.7c-0.1,0.3-0.3,0.6-0.5,0.9c-0.3,0.2-0.5,0.4-0.8,0.6c-0.2,0.7-0.6,1.6-1,2.5c-0.5,1-0.9,1.9-1.4,2.9		c-0.5,1-1,1.9-1.5,2.8c-0.5,0.9-1,1.7-1.4,2.2c1.8-0.4,3.8-1.1,6-1.9s4.4-1.7,6.5-2.5l1.4-0.6c0.1,0,0.1,0.1,0.1,0.2		c0,0.1,0,0.3,0,0.4c0.1,0.4,0.1,0.7,0,0.8c-0.1,0.2-0.2,0.4-0.5,0.7c-0.1,0.2-0.3,0.5-0.5,0.9c-0.2,0.4-0.5,0.6-0.8,0.8		c-1.6,1-3.7,2-6.3,3.1c-2.5,1.1-5.3,2.1-8.4,2.9c-0.3-0.1-0.4-0.3-0.4-0.7c0-0.4,0-0.6-0.1-0.8c-0.1-0.2-0.1-0.4,0-0.6		s0.1-0.4,0.2-0.7c0-0.2,0.1-0.5,0-0.8c0-0.3,0-0.6,0.1-0.8c0.4-0.7,0.8-1.5,1.3-2.4c0.5-0.9,1-1.9,1.5-2.8c0.5-1,0.9-1.9,1.4-2.9		c0.4-0.9,0.8-1.8,1.1-2.5c-1.4,0.4-2.8,0.7-4.3,1.1s-2.7,0.6-3.9,0.6c-0.1,0-0.4,0.1-0.9,0.1c-0.1,2.2-0.2,4.2-0.3,6.2		C295.2,50,295.2,51.8,295.3,53.4z M309.7,13.6c0,0.2-0.1,0.4-0.3,0.4c-0.2,0-0.4,0.2-0.6,0.4c-0.4,0.3-0.8,0.7-1.3,1		c-0.5,0.3-1,0.6-1.4,0.6c-2.2-0.7-4.3-1.4-6.5-1.9c-2.2-0.6-4.5-1.1-6.9-1.8c-0.1,0-0.2-0.1-0.4-0.1c-0.1,0-0.2-0.1-0.3-0.2		c0,0,0-0.1-0.1-0.1c-0.1,0-0.1-0.1,0-0.1l0.8-0.7c3.1-0.6,6.1-0.8,9-0.6C304.5,10.7,307.2,11.7,309.7,13.6z"/></g></svg>