<?xml version="1.0" encoding="utf-8"?><!-- Generator: Adobe Illustrator 18.0.0, SVG Export Plug-In . SVG Version: 6.00 Build 0)  --><!DOCTYPE svg PUBLIC "-//W3C//DTD SVG 1.1//EN" "http://www.w3.org/Graphics/SVG/1.1/DTD/svg11.dtd"><svg fill="#f2f2f2" version="1.1" id="Layer_1" xmlns="http://www.w3.org/2000/svg" xmlns:xlink="http://www.w3.org/1999/xlink" x="0px" y="0px"	 viewBox="0 0 320.1 29.7" enable-background="new 0 0 320.1 29.7" xml:space="preserve"><g>	<path d="M23.8,28.5c-0.4,0-0.7-0.3-1.1-0.8c-0.4-0.5-0.6-1.1-0.6-1.6c-0.3-1.9-0.6-4-0.9-6.5c-0.4-2.5-0.9-5.4-1.5-8.8		c-1,1.8-1.9,3.6-2.8,5.4C16,18,15,19.8,14.1,21.6c-0.6,1.1-1.2,1.7-1.8,1.7c-0.9,0-1.6-0.5-2.1-1.4c-1.1-1.6-2.3-3.2-3.5-4.6		S4.3,14.5,3,13.1c-0.1,2.1,0,4.2,0.1,6.3c0.1,2.1,0.3,4.1,0.6,6c0.1,0.4,0,0.7-0.1,0.9c-0.1,0.3-0.3,0.4-0.5,0.5		c-0.4,0.2-0.9,0.1-1.3-0.3c-0.4-0.4-0.7-0.7-0.8-1.2c-0.3-1.2-0.5-2.4-0.6-3.8s-0.2-2.8-0.3-4.3C0,15.9,0,14.4,0,13s0-2.7,0-3.8		c0-1.3,0.4-1.9,1.2-1.9c0.5,0,0.9,0.2,1.3,0.6c0.4,0.4,0.5,0.9,0.6,1.6c1.6,1.6,3.1,3.2,4.5,4.9c1.4,1.7,2.8,3.4,4.2,5.1		c1.1-2,2.3-4.1,3.4-6.2S17.7,9,19.2,7c0.1-0.4,0.2-0.7,0.5-1.1c0.3-0.4,0.6-0.6,1-0.7c0.4-0.1,0.7,0,1.1,0.4		C22.1,6,22.4,6.5,22.5,7c0.5,3.2,1,6.5,1.4,9.7c0.4,3.2,0.8,6.5,1.2,9.7c0.1,0.6,0,1.1-0.3,1.5C24.5,28.3,24.2,28.5,23.8,28.5z"/>	<path d="M40,10c1,0.4,1.8,0.9,2.4,1.6c0.7,0.7,1.2,1.5,1.5,2.4c0.4,0.9,0.6,1.8,0.6,2.7c0,0.9-0.1,1.8-0.3,2.6		c-0.4,0.9-0.8,1.8-1.3,2.6c-0.5,0.9-1.2,1.6-1.9,2.3c-0.7,0.7-1.5,1.2-2.4,1.6c-0.9,0.4-1.9,0.6-3,0.6c-1.3,0-2.4-0.3-3.3-0.9		c-0.9-0.6-1.6-1.4-2.1-2.4c-0.5-1-0.8-2-1-3.3c-0.1-1.2-0.1-2.4,0.1-3.6c0.1-0.9,0.3-1.8,0.6-2.6c0.3-0.8,0.7-1.6,1.2-2.3		c0.5-0.7,1-1.2,1.7-1.6c0.6-0.4,1.3-0.6,2.1-0.6c0.4,0,1,0.1,1.7,0.3s1.3,0.4,1.9,0.7C38.9,9.8,39.4,9.7,40,10z M38.2,13.5		c-0.4-0.2-0.8-0.5-1.2-0.9c-0.5-0.4-0.9-0.6-1.2-0.6c-0.4,0-0.8,0.2-1.1,0.5c-0.4,0.4-0.7,0.8-1,1.2c-0.3,0.5-0.5,0.9-0.7,1.4		c-0.2,0.5-0.3,0.9-0.4,1.2c-0.1,0.5-0.2,1.1-0.2,1.7c0,0.7,0,1.3,0.1,2c0.1,0.7,0.4,1.2,0.7,1.8c0.4,0.5,0.9,0.9,1.7,1.1		c0.4,0.1,1,0.1,1.6,0c0.6-0.1,1.2-0.4,1.8-0.8c0.6-0.4,1.2-0.9,1.7-1.5c0.5-0.6,0.9-1.4,1.2-2.2c0.3-0.9,0.3-1.9,0-2.9		c-0.3-1-0.9-1.7-1.8-2.2c-0.2,0.2-0.4,0.2-0.7,0.2C38.5,13.6,38.3,13.6,38.2,13.5z"/>	<path d="M62.7,10.2c-0.6,0.3-1.2,0.7-1.8,1c-0.6,0.4-1.2,0.8-1.9,1.2c-0.6,0.5-1.2,1-1.8,1.6c-0.6,0.6-1.1,1.4-1.5,2.2		c-0.6,1.2-1.1,2.5-1.3,3.7c-0.2,1.3-0.4,2.5-0.4,3.7c0,0.6-0.1,1.2-0.4,1.8c-0.3,0.6-0.6,0.9-1.1,0.9c-0.6,0-1.1-0.3-1.5-0.9		c-0.4-0.6-0.6-1.2-0.7-1.8c-0.5-2.3-1-4.5-1.3-6.7c-0.4-2.2-0.7-4.4-0.9-6.6c0-0.4,0.1-0.7,0.4-0.9c0.3-0.1,0.6-0.2,0.9-0.1		c0.4,0,0.8,0.1,1.1,0.3c0.4,0.2,0.6,0.4,0.6,0.8c0.1,1.2,0.3,2.4,0.5,3.7s0.4,2.4,0.6,3.3c0.1-1.1,0.5-2.1,1.1-3.2		c0.6-1,1.3-2,2.1-2.8c0.8-0.8,1.8-1.5,2.9-2.1c1.1-0.6,2.2-1,3.3-1.2c0.5-0.1,0.9-0.1,1.2,0c0.3,0.1,0.5,0.2,0.7,0.3		c0.1,0.2,0.2,0.4,0.1,0.8C63.4,9.6,63.2,9.9,62.7,10.2z"/>	<path d="M73.7,2.4c-0.1-0.6-0.1-1.1,0.1-1.6C74,0.4,74.4,0.1,74.9,0c0.5-0.1,0.9,0.1,1.3,0.4c0.4,0.3,0.6,0.7,0.7,1.2		c0.6,3.7,1.2,7.3,1.8,11c0.6,3.6,1.1,7.2,1.5,10.7c0.1,0.9,0.1,1.6-0.2,1.9c-0.3,0.3-0.6,0.6-0.9,0.7c-0.4,0.2-0.7,0.2-1.1,0		c-0.3-0.2-0.6-0.4-0.6-0.9l0-0.3l-0.2,0c-1.1,0.4-2.2,0.6-3.3,0.6c-1.2,0-2.3-0.1-3.3-0.4c-1.1-0.3-2-0.8-2.8-1.6		c-0.8-0.7-1.4-1.6-1.8-2.8c-0.8-2.5-0.3-4.7,1.4-6.7c0.7-0.8,1.6-1.6,2.7-2.3c1.1-0.7,2.4-1.2,3.9-1.6l0.9-0.2L73.7,2.4z		 M68.9,19.6c0.2,0.8,0.5,1.4,1.1,1.8c0.5,0.4,1.1,0.7,1.8,0.8c0.7,0.1,1.5,0.2,2.3,0.1c0.8-0.1,1.6-0.3,2.4-0.5l0.4-0.1l-1.3-8.4		l-1,0.2c-0.7,0.2-1.4,0.5-2.1,0.9c-0.8,0.4-1.4,0.9-2,1.4c-0.6,0.5-1,1.2-1.3,1.8C68.7,18.2,68.7,18.8,68.9,19.6z"/>	<path d="M94.4,15.5c-1.2,0.7-2.6,1.3-4,1.7c-1.4,0.4-3,0.6-4.7,0.6c0.1,1.1,0.4,2,1,2.7s1.3,1,2.2,1.2c0.5,0.1,1,0,1.6,0		c0.5-0.1,1-0.2,1.5-0.5c0.5-0.2,0.9-0.4,1.3-0.7c0.4-0.3,0.7-0.5,1-0.8c0.3-0.3,0.6-0.4,0.9-0.5c0.3-0.1,0.6-0.1,0.7,0		c0.4,0.2,0.6,0.6,0.5,1.4c-0.5,1-1.2,1.9-2.2,2.6s-2,1.2-3.2,1.4c-1,0.2-2.1,0.1-3.2-0.1c-1.1-0.3-2.1-0.8-2.9-1.7		C84,22,83.4,21.1,83,20.1c-0.4-1-0.6-2-0.7-3.1c-0.1-1,0-1.9,0.3-2.8c0.3-0.9,0.7-1.7,1.3-2.4c0.6-0.7,1.3-1.3,2.2-1.7		c0.9-0.4,1.9-0.7,3-0.8c1.4-0.1,2.6,0.2,3.7,0.8c1.1,0.6,1.9,1.5,2.4,2.5c0.3,0.6,0.3,1.1,0.2,1.6C95.2,14.7,94.9,15.1,94.4,15.5z		 M88.8,12.2c-0.3,0.1-0.7,0.2-1,0.3c-0.4,0.2-0.7,0.4-1,0.6c-0.3,0.2-0.6,0.5-0.8,0.8c-0.2,0.3-0.4,0.6-0.4,1c0.5,0,1.1,0,1.8-0.1		c0.7-0.1,1.3-0.2,1.9-0.4c0.6-0.1,1.2-0.3,1.7-0.5c0.5-0.2,1-0.4,1.3-0.6c-0.3-0.6-0.7-1-1.4-1.1C90.2,12.1,89.5,12.1,88.8,12.2z"		/>	<path d="M113.9,10.2c-0.6,0.3-1.2,0.7-1.8,1c-0.6,0.4-1.2,0.8-1.9,1.2c-0.6,0.5-1.2,1-1.8,1.6c-0.6,0.6-1.1,1.4-1.5,2.2		c-0.6,1.2-1.1,2.5-1.3,3.7c-0.2,1.3-0.4,2.5-0.4,3.7c0,0.6-0.1,1.2-0.4,1.8c-0.3,0.6-0.6,0.9-1.1,0.9c-0.6,0-1.1-0.3-1.5-0.9		c-0.4-0.6-0.6-1.2-0.7-1.8c-0.5-2.3-1-4.5-1.3-6.7c-0.4-2.2-0.7-4.4-0.9-6.6c0-0.4,0.1-0.7,0.4-0.9c0.3-0.1,0.6-0.2,0.9-0.1		c0.4,0,0.8,0.1,1.1,0.3c0.4,0.2,0.6,0.4,0.6,0.8c0.1,1.2,0.3,2.4,0.5,3.7s0.4,2.4,0.6,3.3c0.1-1.1,0.5-2.1,1.1-3.2		c0.6-1,1.3-2,2.1-2.8c0.8-0.8,1.8-1.5,2.9-2.1c1.1-0.6,2.2-1,3.3-1.2c0.5-0.1,0.9-0.1,1.2,0c0.3,0.1,0.5,0.2,0.7,0.3		c0.1,0.2,0.2,0.4,0.1,0.8C114.6,9.6,114.4,9.9,113.9,10.2z"/>	<path d="M119.9,10.9c0.1,0.5,0.2,1,0.3,1.6c0.1,0.6,0.2,1.2,0.4,1.8c0.1,0.6,0.2,1.3,0.3,1.9c0.1,0.6,0.2,1.2,0.2,1.8		c0.4-0.8,0.8-1.7,1.2-2.6c0.4-0.9,0.9-1.8,1.5-2.6c0.5-0.8,1.1-1.4,1.7-1.9c0.6-0.5,1.2-0.8,1.9-0.8c1.1,0,1.9,0.4,2.7,1.2		c0.7,0.8,1.3,1.7,1.8,2.9s0.9,2.3,1.2,3.6s0.5,2.4,0.7,3.3c0.2,0.9-0.2,1.5-1.2,1.9c-0.4,0.2-0.8,0.3-1,0.1		c-0.2-0.2-0.4-0.3-0.4-0.5c-0.2-0.4-0.4-1.1-0.6-2c-0.2-1-0.5-1.9-0.8-2.9c-0.3-1-0.6-1.9-1-2.6c-0.4-0.7-0.8-1.1-1.3-1		c-0.6,0-1.1,0.5-1.5,1.3c-0.4,0.7-0.8,1.4-1.2,2.2c-0.4,0.8-0.8,1.6-1.2,2.5c-0.4,0.8-0.8,1.7-1.1,2.5c-0.4,0.8-0.7,1.6-1,2.3		c-0.2,0.2-0.5,0.4-0.8,0.5c-0.3,0.1-0.7,0.1-1-0.1c-0.3-0.1-0.6-0.3-0.8-0.5c-0.2-0.2-0.3-0.4-0.3-0.7c-0.3-2.5-0.6-4.8-0.9-6.8		c-0.3-2-0.7-4.1-1.2-6.3c-0.2-0.7-0.3-1.3-0.1-1.8c0.1-0.4,0.6-0.6,1.4-0.5C119,9,119.6,9.7,119.9,10.9z"/>	<path d="M162.6,9c0.1,0.9,0.2,1.8,0.3,2.9c0.1,1,0.1,2,0.2,3c0,1,0.1,2,0.1,3s0,1.8,0,2.6c1,0.7,1.6,1.3,1.8,1.9		c0.2,0.5,0.2,1,0.1,1.4c-0.2,0.6-0.5,0.9-1,0.9c-0.5,0-1.1-0.2-1.7-0.5c-0.4,0.3-1,0.7-1.5,1s-1.2,0.7-1.8,1.1s-1.3,0.6-1.9,0.9		c-0.6,0.3-1.2,0.4-1.8,0.5c-1,0.2-1.9,0-2.8-0.6c-0.8-0.5-1.4-1.4-1.7-2.4c-0.2-0.7-0.2-1.5-0.1-2.3s0.3-1.5,0.7-2.3		c0.4-0.7,0.9-1.4,1.6-1.9c0.7-0.6,1.4-1,2.3-1.3c0.2-0.1,0.5-0.2,0.9-0.2c0.4-0.1,0.8-0.1,1.2-0.1c0.4,0,0.9,0.1,1.3,0.3		c0.4,0.2,0.9,0.4,1.2,0.8c0-0.5,0-1.1,0-1.8c0-0.7,0-1.3-0.1-2c0-0.7-0.1-1.3-0.1-1.9c0-0.6-0.1-1.1-0.2-1.5		c-0.1-0.5-0.2-0.8-0.6-0.9s-0.7-0.1-1.1,0.1c-0.8,0.3-1.7,0.8-2.7,1.5c-1,0.7-2,1.5-2.9,2.4c-0.3,0.3-0.6,0.4-1,0.4		c-0.4,0-0.7-0.2-0.9-0.4c-0.3-0.3-0.4-0.6-0.4-0.9c0-0.3,0.1-0.7,0.4-1.1c0.5-0.6,1.2-1.2,1.8-1.8c0.7-0.6,1.4-1.2,2.1-1.7		c0.7-0.5,1.5-0.9,2.3-1.2c0.8-0.3,1.5-0.5,2.3-0.5c1.1,0,2,0.2,2.6,0.7C162.1,7.5,162.5,8.2,162.6,9z M157.1,19.3		c-0.4,0.1-0.9,0.3-1.3,0.6c-0.5,0.3-0.9,0.7-1.2,1.1c-0.4,0.4-0.6,0.9-0.8,1.4c-0.2,0.5-0.2,1,0,1.6c0.1,0.2,0.2,0.3,0.4,0.4		c0.2,0.1,0.4,0.1,0.7,0c0.8-0.2,1.6-0.5,2.6-0.9c1-0.5,1.8-1,2.3-1.5c0-0.2-0.1-0.4-0.3-0.7c-0.2-0.3-0.4-0.6-0.7-0.9		c-0.3-0.3-0.5-0.6-0.8-0.8C157.6,19.4,157.3,19.3,157.1,19.3z"/>	<path d="M178.9,14.4c-0.2,0.1-0.5,0.2-0.8,0.1s-0.6-0.2-0.8-0.6c-0.5-0.7-1.1-1-1.9-1c-0.7,0-1.3,0.2-1.8,0.5		c-0.5,0.3-1,0.7-1.4,1.2c-0.4,0.5-0.7,1-1,1.7c-0.3,0.6-0.4,1.2-0.5,1.8c-0.2,1.1,0,2.1,0.6,2.8c0.5,0.8,1.4,1.2,2.5,1.2		c0.9,0,2-0.2,3.1-0.6c1.2-0.4,2.3-0.9,3.3-1.6c0.4-0.2,0.9-0.3,1.2-0.3c0.4,0,0.7,0.2,1,0.6c0.3,0.5,0.2,1-0.2,1.6		c-0.5,0.5-1.1,1-1.9,1.4c-0.8,0.4-1.6,0.8-2.5,1.2c-0.9,0.3-1.8,0.6-2.7,0.7c-0.9,0.1-1.8,0.2-2.7,0c-0.9-0.1-1.7-0.4-2.5-0.9		c-1.2-0.8-2-2-2.2-3.6c-0.3-1.5-0.1-3.1,0.3-4.8c0.2-0.6,0.5-1.2,0.8-1.8c0.4-0.6,0.8-1.2,1.3-1.7c0.5-0.5,1-1,1.7-1.3		c0.6-0.4,1.3-0.6,2-0.7c1.2-0.2,2.3-0.1,3.4,0.4c1.1,0.4,1.8,1.2,2.2,2.4c0.1,0.3,0.1,0.5,0,0.8C179.4,14,179.2,14.3,178.9,14.4z"		/>	<path d="M197.2,9c0.1,0.9,0.2,1.8,0.3,2.9s0.1,2,0.2,3c0,1,0.1,2,0.1,3s0,1.8,0,2.6c1,0.7,1.6,1.3,1.8,1.9c0.2,0.5,0.2,1,0.1,1.4		c-0.2,0.6-0.5,0.9-1,0.9c-0.5,0-1.1-0.2-1.7-0.5c-0.4,0.3-1,0.7-1.5,1s-1.2,0.7-1.8,1.1c-0.6,0.3-1.3,0.6-1.9,0.9		c-0.6,0.3-1.2,0.4-1.8,0.5c-1,0.2-1.9,0-2.8-0.6c-0.8-0.5-1.4-1.4-1.7-2.4c-0.2-0.7-0.2-1.5-0.1-2.3c0.1-0.8,0.3-1.5,0.7-2.3		c0.4-0.7,0.9-1.4,1.6-1.9c0.7-0.6,1.4-1,2.3-1.3c0.2-0.1,0.5-0.2,0.9-0.2s0.8-0.1,1.2-0.1c0.4,0,0.9,0.1,1.3,0.3		c0.4,0.2,0.9,0.4,1.2,0.8c0-0.5,0-1.1,0-1.8c0-0.7,0-1.3-0.1-2c0-0.7-0.1-1.3-0.1-1.9c0-0.6-0.1-1.1-0.2-1.5		c-0.1-0.5-0.2-0.8-0.6-0.9c-0.3-0.1-0.7-0.1-1.1,0.1c-0.8,0.3-1.7,0.8-2.7,1.5c-1,0.7-2,1.5-2.9,2.4c-0.3,0.3-0.6,0.4-1,0.4		c-0.4,0-0.7-0.2-0.9-0.4c-0.3-0.3-0.4-0.6-0.4-0.9c0-0.3,0.1-0.7,0.4-1.1c0.5-0.6,1.2-1.2,1.8-1.8c0.7-0.6,1.4-1.2,2.1-1.7		c0.7-0.5,1.5-0.9,2.3-1.2c0.8-0.3,1.5-0.5,2.3-0.5c1.1,0,2,0.2,2.6,0.7C196.7,7.5,197.1,8.2,197.2,9z M191.7,19.3		c-0.4,0.1-0.9,0.3-1.3,0.6c-0.5,0.3-0.9,0.7-1.2,1.1c-0.4,0.4-0.6,0.9-0.8,1.4s-0.2,1,0,1.6c0.1,0.2,0.2,0.3,0.4,0.4		c0.2,0.1,0.4,0.1,0.7,0c0.8-0.2,1.6-0.5,2.6-0.9c1-0.5,1.8-1,2.3-1.5c0-0.2-0.1-0.4-0.3-0.7c-0.2-0.3-0.4-0.6-0.7-0.9		c-0.3-0.3-0.5-0.6-0.8-0.8C192.2,19.4,191.9,19.3,191.7,19.3z"/>	<path d="M210.6,2.4c-0.1-0.6-0.1-1.1,0.1-1.6c0.2-0.5,0.5-0.8,1.1-0.8c0.5-0.1,0.9,0.1,1.3,0.4c0.4,0.3,0.6,0.7,0.7,1.2		c0.6,3.7,1.2,7.3,1.8,11c0.6,3.6,1.1,7.2,1.5,10.7c0.1,0.9,0.1,1.6-0.2,1.9c-0.3,0.3-0.6,0.6-0.9,0.7c-0.4,0.2-0.7,0.2-1.1,0		c-0.3-0.2-0.6-0.4-0.6-0.9l0-0.3l-0.2,0c-1.1,0.4-2.2,0.6-3.3,0.6c-1.2,0-2.3-0.1-3.3-0.4c-1.1-0.3-2-0.8-2.8-1.6		c-0.8-0.7-1.4-1.6-1.8-2.8c-0.8-2.5-0.3-4.7,1.4-6.7c0.7-0.8,1.6-1.6,2.7-2.3c1.1-0.7,2.4-1.2,3.9-1.6l0.9-0.2L210.6,2.4z		 M205.7,19.6c0.2,0.8,0.5,1.4,1.1,1.8c0.5,0.4,1.1,0.7,1.8,0.8s1.5,0.2,2.3,0.1c0.8-0.1,1.6-0.3,2.4-0.5l0.4-0.1l-1.3-8.4l-1,0.2		c-0.7,0.2-1.4,0.5-2.1,0.9c-0.8,0.4-1.4,0.9-2,1.4c-0.6,0.5-1,1.2-1.3,1.8S205.5,18.8,205.7,19.6z"/>	<path d="M231.2,15.5c-1.2,0.7-2.6,1.3-4,1.7c-1.4,0.4-3,0.6-4.7,0.6c0.1,1.1,0.4,2,1,2.7s1.3,1,2.2,1.2c0.5,0.1,1,0,1.6,0		c0.5-0.1,1-0.2,1.5-0.5s0.9-0.4,1.3-0.7c0.4-0.3,0.7-0.5,1-0.8s0.6-0.4,0.9-0.5c0.3-0.1,0.6-0.1,0.7,0c0.4,0.2,0.6,0.6,0.5,1.4		c-0.5,1-1.2,1.9-2.2,2.6s-2,1.2-3.2,1.4c-1,0.2-2.1,0.1-3.2-0.1c-1.1-0.3-2.1-0.8-2.9-1.7c-0.7-0.7-1.3-1.6-1.7-2.6		c-0.4-1-0.6-2-0.7-3.1c-0.1-1,0-1.9,0.3-2.8c0.3-0.9,0.7-1.7,1.3-2.4c0.6-0.7,1.3-1.3,2.2-1.7c0.9-0.4,1.9-0.7,3-0.8		c1.4-0.1,2.6,0.2,3.7,0.8c1.1,0.6,1.9,1.5,2.4,2.5c0.3,0.6,0.3,1.1,0.2,1.6C232.1,14.7,231.8,15.1,231.2,15.5z M225.7,12.2		c-0.3,0.1-0.7,0.2-1,0.3c-0.4,0.2-0.7,0.4-1,0.6c-0.3,0.2-0.6,0.5-0.8,0.8c-0.2,0.3-0.4,0.6-0.4,1c0.5,0,1.1,0,1.8-0.1		c0.7-0.1,1.3-0.2,1.9-0.4c0.6-0.1,1.2-0.3,1.7-0.5c0.5-0.2,1-0.4,1.3-0.6c-0.3-0.6-0.7-1-1.4-1.1C227.1,12.1,226.4,12.1,225.7,12.2		z"/>	<path d="M239.3,11.2c0,0.5,0.1,1.1,0.2,1.9c0.1,0.8,0.2,1.5,0.3,2.4c0.1,0.8,0.2,1.6,0.3,2.4c0.1,0.8,0.2,1.5,0.3,2.2		c0.4-0.7,0.8-1.6,1.3-2.6c0.5-1,1-2,1.6-3c0.6-0.9,1.1-1.7,1.7-2.4c0.6-0.7,1.1-1,1.6-1c0.5,0,1,0.2,1.4,0.7		c0.4,0.5,0.8,1.1,1.1,1.8c0.3,0.7,0.6,1.5,0.8,2.3c0.2,0.8,0.4,1.5,0.6,2.1c0.1-0.4,0.3-0.9,0.5-1.4c0.2-0.5,0.4-1.1,0.7-1.6		c0.2-0.6,0.5-1.1,0.8-1.7c0.3-0.5,0.6-1,1-1.4c0.4-0.4,0.9-0.8,1.3-1c0.5-0.2,0.8-0.3,1.1-0.3c0.3,0,0.6,0.1,1,0.3		c0.4,0.2,0.8,0.4,1.2,0.7c0.4,0.3,0.8,0.6,1.2,1c0.4,0.4,0.7,0.8,0.9,1.2c0.4,0.9,0.8,1.8,1.1,2.8c0.3,1,0.5,2,0.6,2.9		c0.1,0.9,0.2,1.8,0.3,2.5s0.1,1.2,0.1,1.5c0,0.4,0,0.7-0.1,0.9c-0.1,0.2-0.3,0.4-0.5,0.5c-0.4,0.2-0.7,0.2-0.9,0.2		c-0.3,0-0.5-0.2-0.6-0.3c-0.2-0.2-0.3-0.3-0.4-0.6s-0.2-0.4-0.2-0.6c-0.1-0.7-0.2-1.5-0.3-2.3c-0.1-0.8-0.2-1.5-0.4-2.2		s-0.3-1.4-0.5-2s-0.4-1.2-0.6-1.7c-0.1-0.1-0.2-0.3-0.3-0.5c-0.1-0.2-0.3-0.4-0.5-0.6c-0.2-0.2-0.3-0.4-0.5-0.5		c-0.2-0.1-0.3-0.2-0.3-0.2c-0.3,0-0.7,0.3-1,0.9c-0.4,0.6-0.7,1.3-1,2.1s-0.6,1.7-0.9,2.6c-0.3,0.9-0.5,1.7-0.6,2.3		c0,0.8-0.2,1.4-0.5,1.8c-0.3,0.4-0.7,0.6-1,0.6c-0.4,0-0.7-0.1-1.1-0.4c-0.4-0.3-0.7-0.6-0.8-0.9c-0.2-0.5-0.4-1.1-0.6-1.7		c-0.2-0.6-0.5-1.3-0.7-2s-0.5-1.3-0.7-2c-0.2-0.6-0.5-1.2-0.7-1.7c-0.4,0.6-0.9,1.3-1.3,2c-0.4,0.7-0.8,1.5-1.2,2.3		c-0.4,0.8-0.8,1.5-1.2,2.3c-0.4,0.8-0.7,1.4-1,2c-0.2,0.4-0.5,0.7-0.7,0.9c-0.3,0.3-0.6,0.4-0.9,0.4c-0.3,0-0.5-0.1-0.8-0.4		s-0.6-0.5-0.8-0.9c-0.3-0.4-0.5-0.8-0.7-1.2s-0.4-0.9-0.5-1.3c-0.3-1.4-0.5-2.9-0.6-4.5c-0.2-1.6-0.3-3.3-0.5-4.8		c0-0.5,0-1,0.2-1.5c0.2-0.5,0.5-0.8,1-0.9c0.5-0.1,1,0,1.2,0.2C239.1,10.3,239.3,10.7,239.3,11.2z"/>	<path d="M274.3,7.2c-0.1,0.3-0.3,0.5-0.7,0.5c-0.4,0-0.7,0-1,0c-0.8,0-1.6,0.1-2.5,0.2c-0.8,0.1-1.7,0.3-2.7,0.6		c-0.4,0.1-0.8,0.1-1.2-0.1s-0.7-0.7-0.8-1.3c0-0.3,0.1-0.5,0.3-0.6c0.2-0.2,0.4-0.3,0.7-0.4c0.4-0.2,0.9-0.4,1.5-0.5		c0.6-0.1,1.2-0.2,1.8-0.3c0.6-0.1,1.2-0.1,1.7-0.1c0.5,0,1,0.1,1.3,0.2c0.5,0.2,0.9,0.4,1.2,0.7C274.3,6.3,274.4,6.7,274.3,7.2z		 M273.2,23.2c0.2,0.5,0.3,1.1,0.4,1.7c0,0.6-0.2,1-0.5,1.2c-0.4,0.3-0.9,0.3-1.4,0c-0.5-0.3-0.9-0.8-1.2-1.3		c-0.4-0.7-0.6-1.5-0.8-2.5c-0.2-1-0.3-1.9-0.4-2.9c-0.1-1-0.2-1.9-0.2-2.7c0-0.8,0-1.5,0-1.9c0-0.4,0.2-0.9,0.4-1.2		c0.2-0.4,0.5-0.6,0.9-0.7c0.6,0,1,0.3,1.4,0.8c0.4,0.5,0.5,1.1,0.5,1.8c0,0.6,0,1.2,0,1.9c0,0.7,0.1,1.4,0.2,2.1		c0.1,0.7,0.2,1.4,0.3,2C272.9,22.2,273,22.7,273.2,23.2z"/>	<path d="M286.8,12.4c-0.1-0.4-0.1-0.7-0.2-1c-0.1-0.3-0.2-0.5-0.5-0.6c-0.5-0.2-1.1-0.2-1.7,0c-0.6,0.1-1.2,0.3-1.7,0.6		s-0.9,0.6-1.3,0.9c-0.4,0.3-0.5,0.6-0.6,0.9c-0.1,0.5,0,0.9,0.4,1.4c0.4,0.4,0.9,0.9,1.5,1.3c1.1,0.7,2.3,1.4,3.5,2.1		c1.2,0.7,2.2,1.4,3.1,2.2s1.4,1.5,1.7,2.4c0.3,0.9,0.2,1.9-0.2,3c-0.4,0.9-1,1.6-2,2.1s-2,1-3.2,1.3c-1.2,0.3-2.3,0.5-3.5,0.6		c-1.2,0.1-2.1,0.2-2.9,0.2c-0.2,0-0.4-0.1-0.7-0.2c-0.3-0.1-0.5-0.3-0.8-0.5c-0.2-0.2-0.4-0.4-0.6-0.6c-0.2-0.2-0.3-0.4-0.3-0.6		c0-0.6,0.3-1,0.8-1.2c0.5-0.2,1-0.3,1.6-0.3c0.8,0,1.6,0,2.5-0.1c0.9-0.1,1.7-0.2,2.5-0.4c0.8-0.2,1.5-0.4,2.2-0.7		c0.6-0.3,1.1-0.7,1.3-1.1c0.2-0.4,0.1-0.8-0.4-1.4c-0.5-0.5-1.2-1.1-2-1.7c-0.8-0.6-1.7-1.1-2.6-1.7c-0.9-0.5-1.8-1-2.4-1.5		s-1.2-1-1.7-1.6c-0.5-0.6-0.8-1.4-0.9-2.3c0-0.8,0.1-1.6,0.5-2.4c0.4-0.8,0.9-1.4,1.5-2s1.3-1.1,2.1-1.4c0.8-0.4,1.6-0.5,2.4-0.5		c1.4,0.1,2.5,0.4,3.4,1.1s1.4,1.7,1.6,3c0,0.4-0.1,0.8-0.2,1.1c-0.1,0.3-0.4,0.5-0.7,0.5c-0.4,0.1-0.8,0-1.1-0.2		C287,12.9,286.9,12.7,286.8,12.4z"/>	<path d="M297,11.2c0,0.5,0.1,1.1,0.2,1.9c0.1,0.8,0.2,1.5,0.3,2.4c0.1,0.8,0.2,1.6,0.3,2.4c0.1,0.8,0.2,1.5,0.3,2.2		c0.4-0.7,0.8-1.6,1.3-2.6c0.5-1,1-2,1.6-3c0.6-0.9,1.1-1.7,1.7-2.4c0.6-0.7,1.1-1,1.6-1c0.5,0,1,0.2,1.4,0.7		c0.4,0.5,0.8,1.1,1.1,1.8c0.3,0.7,0.6,1.5,0.8,2.3c0.2,0.8,0.4,1.5,0.6,2.1c0.1-0.4,0.3-0.9,0.5-1.4c0.2-0.5,0.4-1.1,0.7-1.6		c0.2-0.6,0.5-1.1,0.8-1.7c0.3-0.5,0.6-1,1-1.4c0.4-0.4,0.9-0.8,1.3-1c0.5-0.2,0.8-0.3,1.1-0.3c0.3,0,0.6,0.1,1,0.3		c0.4,0.2,0.8,0.4,1.2,0.7s0.8,0.6,1.2,1c0.4,0.4,0.7,0.8,0.9,1.2c0.4,0.9,0.8,1.8,1.1,2.8c0.3,1,0.5,2,0.6,2.9		c0.1,0.9,0.2,1.8,0.3,2.5c0,0.7,0.1,1.2,0.1,1.5c0,0.4,0,0.7-0.1,0.9s-0.3,0.4-0.5,0.5c-0.4,0.2-0.7,0.2-0.9,0.2s-0.5-0.2-0.6-0.3		c-0.2-0.2-0.3-0.3-0.4-0.6s-0.2-0.4-0.2-0.6c-0.1-0.7-0.2-1.5-0.3-2.3c-0.1-0.8-0.2-1.5-0.4-2.2s-0.3-1.4-0.5-2s-0.4-1.2-0.6-1.7		c-0.1-0.1-0.2-0.3-0.3-0.5c-0.1-0.2-0.3-0.4-0.5-0.6c-0.2-0.2-0.3-0.4-0.5-0.5s-0.3-0.2-0.3-0.2c-0.3,0-0.7,0.3-1,0.9		c-0.4,0.6-0.7,1.3-1,2.1c-0.3,0.8-0.6,1.7-0.9,2.6c-0.3,0.9-0.5,1.7-0.6,2.3c0,0.8-0.2,1.4-0.5,1.8s-0.7,0.6-1,0.6		c-0.4,0-0.7-0.1-1.1-0.4c-0.4-0.3-0.7-0.6-0.8-0.9c-0.2-0.5-0.4-1.1-0.6-1.7c-0.2-0.6-0.5-1.3-0.7-2c-0.2-0.7-0.5-1.3-0.7-2		c-0.2-0.6-0.5-1.2-0.7-1.7c-0.4,0.6-0.9,1.3-1.3,2c-0.4,0.7-0.8,1.5-1.2,2.3c-0.4,0.8-0.8,1.5-1.2,2.3s-0.7,1.4-1,2		c-0.2,0.4-0.5,0.7-0.7,0.9c-0.3,0.3-0.6,0.4-0.9,0.4c-0.3,0-0.5-0.1-0.8-0.4s-0.6-0.5-0.8-0.9c-0.3-0.4-0.5-0.8-0.7-1.2		s-0.4-0.9-0.5-1.3c-0.3-1.4-0.5-2.9-0.6-4.5c-0.2-1.6-0.3-3.3-0.5-4.8c0-0.5,0-1,0.2-1.5c0.2-0.5,0.5-0.8,1-0.9		c0.5-0.1,1,0,1.2,0.2C296.8,10.3,297,10.7,297,11.2z"/></g></svg>