<?xml version="1.0" encoding="utf-8"?>
<!-- Generator: Adobe Illustrator 18.0.0, SVG Export Plug-In . SVG Version: 6.00 Build 0)  -->
<!DOCTYPE svg PUBLIC "-//W3C//DTD SVG 1.1//EN" "http://www.w3.org/Graphics/SVG/1.1/DTD/svg11.dtd">
<svg version="1.1" id="Layer_1" xmlns="http://www.w3.org/2000/svg" xmlns:xlink="http://www.w3.org/1999/xlink" x="0px" y="0px"
	 viewBox="0 235 923.3 325" enable-background="new 0 235 923.3 325" xml:space="preserve">
<g>
	<path d="M706.2,386.5c-7.5,8-17.6,13.1-25.1,14.1c-8,1-15.6,2-23.6,2.5c-8,0.5-10.6,2.5-8.5,10.6c3.5,14.1,11.6,25.6,22.1,35.2
		c2,2,4.5,3.5,7,4c13.6,4,27.6,9,41.7,11.6c21.1,3.5,42.2,5.5,63.8,8c8,1,15.6,1,23.6,0c12.6-1,25.6-3.5,38.7-4.5
		c16.1-1.5,32.2-5.5,47.2-12.1c8-3.5,15.6-7.5,18.6-16.6c2.5-8,6.5-15.1,9.5-23.1c2-5,3.5-10.6,4-15.6c0.5-2-0.5-5-2-6
		c-2.5-2-5.5,0.5-6.5,2.5c-4,9.5-11.6,17.1-17.6,25.1c-5,7-11.6,13.6-19.6,16.1c-9.5,3.5-19.6,6-29.7,8c-14.6,2.5-28.6,3.5-43.7,3.5
		c-11.1,0-22.1,0.5-33.7,0.5c-6.5,0-13.1,0.5-19.6-0.5c-8.5-0.5-17.1-2-25.6-3c-15.6-1.5-30.7-5.5-44.7-12.1
		c-5.5-2-9.5-5.5-12.1-12.6c2.5-1,5-2,7.5-2.5c12.6-2.5,25.1-5.5,36.2-12.6c1-0.5,2-1,3-1.5c5.5-3.5,11.1-6.5,16.1-11.1
		c7.5-6.5,5.5-22.1-3.5-26.1c-3.5-2-8.5-2-12.6-2c-5.5-0.5-11.6,0-17.1,0c-9.5,0-19.6-1-29.2,0.5c-14.6,2-28.6,2-43.2,3
		c-14.6,1-29.2,2.5-43.7-2.5c-4-1.5-6.5,2-5.5,6c2,6,5.5,11.1,12.1,12.1c12.6,1.5,25.1,3.5,37.7,3.5c15.6,0.5,30.7-1,46.2-2
		c7-0.5,14.1-1,21.1-1C699.1,386.5,702.7,386.5,706.2,386.5z"/>
	<path d="M169.9,358.9c0.5,0.5,1,1,1,1.5c-2,3.5-4,7.5-6,11.1c-9,14.1-18.6,28.1-27.1,42.2c-17.1,28.1-34.2,56.8-50.8,85.4
		c-8.5,14.6-16.6,29.2-24.6,44.2c-1.5,3-2.5,6.5-2,10.1c0.5,2.5,2.5,5,5,6.5c1,0.5,4.5-1,6-2.5c3.5-4.5,7-9,10.6-13.6
		c3-4.5,5-9,8-13.1c6.5-7.5,12.1-16.1,16.6-25.1c3.5-8,11.1-14.1,12.6-23.6c0.5-1.5,2-3,3.5-4.5c3-4,6.5-8,9-12.1
		c3.5-5,6-11.1,9-16.1c4-7.5,7.5-14.6,12.6-21.6c9-12.6,15.1-26.6,23.1-40.2c4-7.5,8.5-14.6,13.6-21.6c9-13.6,18.1-27.6,26.6-41.2
		c6.5-10.1,12.6-20.1,19.1-29.7c4-6,4-13.1-1-19.6c-4-5.5-8-5-11.1,1c-1.5,4-3,8-5,12.1c-7.5,12.1-15.1,24.6-22.6,36.2
		c-2,3.5-5.5,6.5-9.5,8.5c-6.5,3.5-13.6,5.5-20.6,8c-6,2-12.6,3-19.1,4.5c-8.5,2-16.6,3.5-25.6,1c-2-1-6.5,0-7.5,1.5
		c-1,2-0.5,6,0.5,8c5.5,9,13.6,12.6,24.1,10.1c6.5-1.5,13.6-3,20.6-4.5C162.8,360.9,166.4,359.9,169.9,358.9z"/>
	<path d="M754.9,288c0.5,0.5,0.5,1,0.5,2c-13.6,8.5-25.6,18.6-41.2,23.6c-3,1-6,2.5-8.5,4.5c-1.5,1-2.5,3.5-2,5.5
		c0.5,5,9,12.6,14.1,12.6c6,0,12.6,0,18.6-1c10.6-1.5,21.1-3.5,31.7-4.5c8.5-0.5,14.1-5.5,20.6-9.5c1-1,1.5-2.5,1.5-4.5
		c0.5-5-4-8.5-9.5-8c-5,1-10.1,2-15.1,2.5c-2,0.5-3.5,0-5.5,0c1-2,2-3,3-3.5c6-4,12.6-8,18.1-12.1c3.5-3.5,7.5-7,7-13.1
		c-1-8-5.5-13.1-13.6-13.6c-9-1-18.1-0.5-26.6-1c-2,0-4.5-0.5-8.5-0.5c3.5-3.5,6-5.5,8.5-7.5c1.5-1,3.5-2,4.5-3.5
		c4-3.5,4-9,0.5-13.6c-3.5-5-8-5.5-12.6-2c-3,2-6,4.5-8.5,7.5c-13.6,14.1-28.6,27.6-41.2,42.7c-9,11.1-16.1,24.6-23.6,36.7
		c-0.5,0.5-0.5,0.5-0.5,1c-2.5,7-1.5,11.6,5,16.1c2.5,2,5,2.5,7-0.5c2.5-3,5-5.5,6.5-9c9.5-16.1,19.6-31.7,32.7-45.2
		c3.5-4,7.5-5.5,12.1-4c6.5,2,12.6,2,19.1,1.5C749.9,287,752.4,288,754.9,288z"/>
	<path d="M59.3,363.4c3-2.5,5-5,7.5-7.5c8.5-8,17.1-15.1,25.1-23.6c6.5-7,12.1-15.1,18.6-22.6c7.5-9,8-12.1,1.5-22.1c-2-3-4-5-8-5
		c-3.5,0-5,2.5-6,5.5c-5.5,11.6-12.6,21.6-21.6,30.2c-1,1-2,2.5-3.5,3.5c-11.1,12.6-23.1,23.6-37.2,33.2c-6.5,4.5-14.1,8-21.1,12.6
		c-5,3.5-5.5,5-3.5,11.1c3,9,8,11.1,16.6,8c6.5-2.5,13.6-5.5,20.6-7c8-2,12.6,3,10.1,11.1c-1.5,5.5-4.5,11.1-8,16.1
		c-7,11.1-16.6,19.1-26.6,27.6c-2,1.5-4.5,3.5-5.5,5.5c-3.5,5.5-1,11.6,5.5,12.1c2.5,0.5,5.5-1,8.5-2c15.6-7.5,26.6-21.1,36.7-34.7
		c6-9,8-19.1,4.5-30.2C70.9,375.4,66.8,368.9,59.3,363.4z"/>
	<path d="M435.8,352.3c-3.5,5-6.5,10.6-10.6,15.6c-9.5,13.6-21.6,24.6-34.2,36.2c-9.5,8.5-9,10.6-1,19.6c0.5,0.5,1,0.5,2,1.5
		c6.5-4,13.6-8.5,19.6-14.1c7.5-7.5,14.1-15.6,21.1-23.6c6.5-8.5,12.6-17.6,19.1-26.1c6-9,0-24.1-10.1-27.6
		c-12.1-4-23.6-3.5-35.2-0.5c-14.6,4-28.6,9.5-43.2,14.6c-5.5,2-10.6,4.5-15.6,7c-5,3-5.5,7-2,11.6c4,5.5,6.5,6,13.6,3.5
		c11.6-4.5,22.6-8.5,34.2-13.6c10.6-4.5,21.1-5,31.7-6.5C428.7,348.8,432.3,348.3,435.8,352.3z"/>
	<path d="M441.8,424.7c1.5,2.5,2,5.5,3.5,8c3.5,5,8,5.5,12.1,1c2.5-2.5,4.5-5.5,6-8.5c6.5-11.6,12.6-23.6,19.6-35.2
		c6-10.1,13.1-19.6,19.6-29.7c2-3,5.5-5,8-8c2.5-3,5.5-5.5,8-9c3.5-5-0.5-16.6-6.5-18.1c-2-0.5-5.5,0.5-7.5,1.5
		c-2.5,1.5-5,4.5-6.5,7c-7.5,10.6-15.6,20.1-22.1,31.2c-11.1,17.6-21.1,36.2-31.7,53.8C443.8,420.2,443.3,422.2,441.8,424.7z"/>
</g>
</svg>
